<?xml version="1.0" encoding="UTF-8" standalone="no"?>
<svg width="720px" height="720px" viewBox="0 0 720 720" version="1.1" xmlns="http://www.w3.org/2000/svg" xmlns:xlink="http://www.w3.org/1999/xlink">
    <!-- Generator: Sketch 3.7.1 (28215) - http://www.bohemiancoding.com/sketch -->
    <title>Combined Shape</title>
    <desc>Created with Sketch.</desc>
    <defs></defs>
    <g id="inteface" stroke="none" stroke-width="1" fill="none" fill-rule="evenodd">
        <g id="Blabers" transform="translate(0.000000, -160.000000)" fill="#FAFAFA">
            <path d="M361,779.998118 L361,880.000002 L576.455197,880 L576.455188,880.000005 C605.546706,862.470702 632.340199,841.514819 656.276905,817.691118 L656.276905,817.691118 L543.139305,704.553519 C496.36498,750.971646 432.041097,779.730627 361,779.998118 L361,779.998118 Z M619.998118,521 L720.000003,521 L720.000005,736.455188 C702.470702,765.546706 681.514819,792.340199 657.691118,816.276905 L657.691118,816.276905 L544.553519,703.139305 C590.971646,656.36498 619.730627,592.041097 619.998118,521 L619.998118,521 Z M544.553519,336.860695 L657.691119,223.723095 C681.514818,247.6598 702.4707,274.453291 720,303.544803 L720.000002,519 L720.000002,519 L619.998118,519 C619.730627,447.958903 590.971646,383.63502 544.553519,336.860695 L544.553519,336.860695 Z M361,260.001882 L361,159.999997 L576.455188,159.999995 C605.546706,177.529298 632.340199,198.485182 656.276905,222.308881 L543.139305,335.446481 C496.36498,289.028354 432.041097,260.269373 361,260.001882 L361,260.001882 Z M176.860695,335.446481 L63.723095,222.308881 C87.6597999,198.485182 114.453291,177.5293 143.544803,160 L359,159.999998 L359,159.999998 L359,260.001882 C287.958903,260.269373 223.63502,289.028354 176.860695,335.446481 L176.860695,335.446481 Z M100.001882,519 L-2.5229924e-06,519 L-5.02277999e-06,303.544812 C17.5292983,274.453294 38.4851817,247.659801 62.3088815,223.723095 L62.3088815,223.723095 L175.446481,336.860695 C129.028354,383.63502 100.269373,447.958903 100.001882,519 L100.001882,519 Z M175.446481,703.139305 L62.3088815,816.276905 C38.4851821,792.3402 17.5293004,765.546709 2.48689958e-14,736.455197 L-2.49978766e-06,521 L-2.49978768e-06,521 L100.001882,521 C100.269373,592.041097 129.028354,656.36498 175.446481,703.139305 L175.446481,703.139305 Z M359,779.998118 L359,880.000003 L143.544812,880.000005 C114.453294,862.470702 87.6598008,841.514818 63.723095,817.691119 L63.723095,817.691119 L176.860695,704.553519 C223.63502,750.971646 287.958903,779.730627 359,779.998118 L359,779.998118 Z M360,610 C409.705627,610 450,569.705627 450,520 C450,470.294373 409.705627,430 360,430 C310.294373,430 270,470.294373 270,520 C270,569.705627 310.294373,610 360,610 L360,610 Z" id="Combined-Shape"></path>
        </g>
    </g>
</svg>