<?xml version="1.0" standalone="no"?><!DOCTYPE svg PUBLIC "-//W3C//DTD SVG 1.1//EN" "http://www.w3.org/Graphics/SVG/1.1/DTD/svg11.dtd"><svg width="100%" height="100%" viewBox="0 0 61 61" version="1.1" xmlns="http://www.w3.org/2000/svg" xmlns:xlink="http://www.w3.org/1999/xlink" xml:space="preserve" style="fill-rule:evenodd;clip-rule:evenodd;stroke-linejoin:round;stroke-miterlimit:1.41421;"><g><path d="M30.576,34.412c0.148,0.004 0.296,0.02 0.442,0.05c0.107,0.021 0.211,0.052 0.316,0.083l0.046,0.014c0.161,-0.026 0.321,-0.053 0.483,-0.074c0.067,-0.007 0.134,-0.013 0.201,-0.016c0.339,-0.01 0.676,0.043 0.992,0.165c0.227,0.087 0.441,0.208 0.633,0.356c0.181,0.141 0.343,0.306 0.48,0.491c0.387,0.523 0.556,1.191 0.465,1.836c-0.041,0.294 -0.136,0.581 -0.277,0.842c-0.304,0.56 -0.822,0.991 -1.428,1.187c-0.279,0.09 -0.572,0.118 -0.86,0.168c-0.147,0.027 -0.294,0.056 -0.44,0.086c-0.105,0.019 -0.155,0.029 -0.269,0.041c-0.502,0.052 -1.015,-0.057 -1.461,-0.289c-0.021,-0.012 -0.043,-0.024 -0.064,-0.036c-0.07,-0.02 -0.138,-0.043 -0.206,-0.068c-0.063,-0.025 -0.124,-0.051 -0.186,-0.08c-0.28,-0.136 -0.534,-0.318 -0.748,-0.545c-0.522,-0.556 -0.764,-1.339 -0.648,-2.092c0.035,-0.227 0.101,-0.449 0.196,-0.658c0.118,-0.258 0.28,-0.495 0.477,-0.699c0.215,-0.223 0.473,-0.406 0.755,-0.535c0.308,-0.142 0.641,-0.216 0.979,-0.227c0.041,-0.001 0.081,-0.001 0.122,0Z" style="fill:#000;fill-rule:nonzero;"/><path d="M22.261,21.438c0,0 0.241,-0.224 0.253,-0.273c0.059,-0.226 0.071,-0.465 0.069,-0.697c-0.003,-0.385 -0.047,-0.768 -0.108,-1.148c-0.051,-0.312 -0.119,-0.621 -0.188,-0.93c-0.049,-0.214 -0.097,-0.429 -0.151,-0.642c-0.246,-0.963 -0.555,-1.912 -0.917,-2.838l0.215,-0.803l0,0l0.803,0.214c0.559,0.705 1.081,1.439 1.565,2.198c0.217,0.34 0.431,0.684 0.624,1.038c0.258,0.472 0.492,0.959 0.694,1.457c0.192,0.474 0.353,0.961 0.459,1.462c0.097,0.458 0.143,0.93 0.106,1.398c-0.026,0.324 -0.092,0.646 -0.206,0.951c-0.075,0.202 -0.171,0.393 -0.282,0.578c-0.1,0.164 -0.204,0.323 -0.32,0.476c-0.485,0.643 -1.096,1.182 -1.759,1.634c-0.219,0.149 -0.443,0.29 -0.674,0.419c-0.621,0.348 -1.285,0.626 -1.959,0.855c-0.325,0.111 -0.653,0.211 -0.985,0.298c-0.206,0.054 -0.417,0.095 -0.626,0.136c-0.402,0.079 -0.808,0.142 -1.216,0.19c-0.388,0.045 -0.78,0.08 -1.171,0.093c-0.28,0.009 -0.563,0.004 -0.843,-0.006c-0.218,-0.007 -0.437,-0.016 -0.654,-0.037c-0.451,-0.043 -0.898,-0.11 -1.343,-0.196c-0.05,-0.01 -0.101,-0.02 -0.15,-0.031c-0.52,-0.126 -1.039,-0.273 -1.535,-0.474c-0.596,-0.243 -1.167,-0.55 -1.696,-0.915c-0.224,-0.154 -0.435,-0.331 -0.636,-0.512c-0.557,-0.502 -1.033,-1.095 -1.381,-1.761c-0.267,-0.511 -0.452,-1.07 -0.559,-1.637c-0.079,-0.424 -0.114,-0.858 -0.12,-1.288c-0.01,-0.729 0.067,-1.459 0.228,-2.169c0.054,-0.236 0.116,-0.469 0.188,-0.699c0.047,-0.152 0.103,-0.302 0.161,-0.45c0.101,-0.259 0.217,-0.512 0.348,-0.758c0.157,-0.296 0.332,-0.588 0.549,-0.844c0.356,-0.419 0.797,-0.758 1.256,-1.055c0.394,-0.255 0.808,-0.474 1.233,-0.671c0.508,-0.237 1.031,-0.442 1.562,-0.619c0.359,-0.12 0.723,-0.226 1.091,-0.316c0.301,-0.075 0.604,-0.138 0.91,-0.189c0.762,-0.127 1.55,-0.182 2.315,-0.042c0.476,0.087 0.95,0.257 1.329,0.567l0.184,0.816l-0.837,0.016c-0.012,-0.005 -0.731,0.079 -0.829,0.091c-0.267,0.034 -0.528,0.103 -0.784,0.184c-0.674,0.213 -1.313,0.524 -1.919,0.885c-0.227,0.135 -0.45,0.277 -0.669,0.426c-0.293,0.201 -0.578,0.413 -0.853,0.64c-0.184,0.152 -0.361,0.312 -0.534,0.476c-0.106,0.102 -0.212,0.204 -0.311,0.312c-0.067,0.072 -0.131,0.146 -0.192,0.223c-0.068,0.086 -0.133,0.176 -0.178,0.276l-0.017,0.031l0.021,-0.027l-0.015,0.029l-0.013,0.027l0.022,-0.031l-0.011,0.025l-0.01,0.023l0.024,-0.036l-0.008,0.021l-0.005,0.019l0.024,-0.043c-0.023,0.087 -0.047,0.174 -0.067,0.262c-0.015,0.074 -0.03,0.148 -0.041,0.223c-0.02,0.122 -0.034,0.244 -0.043,0.367c-0.009,0.115 -0.019,0.23 -0.023,0.346c-0.014,0.476 0.03,0.959 0.15,1.421c0.041,0.159 0.094,0.314 0.156,0.467c0.054,0.132 0.11,0.264 0.196,0.379c0.018,0.024 0.039,0.043 0.06,0.065c0.026,0.026 0.051,0.053 0.078,0.079c0.12,0.112 0.257,0.206 0.399,0.288c0.068,0.04 0.138,0.073 0.208,0.11c0.131,0.069 0.265,0.132 0.403,0.187c0.131,0.053 0.265,0.097 0.4,0.141c0.172,0.055 0.342,0.109 0.517,0.153c0.122,0.031 0.244,0.054 0.366,0.082c0.308,0.069 0.616,0.123 0.928,0.164c0.18,0.023 0.36,0.048 0.541,0.065c0.156,0.015 0.313,0.023 0.47,0.034c0.163,0.011 0.326,0.023 0.489,0.029c0.254,0.009 0.509,0.01 0.763,0.001c0.216,-0.006 0.431,-0.019 0.646,-0.039c0.078,-0.007 0.157,-0.017 0.235,-0.024c0.469,-0.04 0.934,-0.103 1.393,-0.208c0.225,-0.051 0.447,-0.115 0.668,-0.184c0.546,-0.17 1.095,-0.385 1.539,-0.755Z" style="fill:#000;fill-rule:nonzero;"/><path d="M40.269,15.869c-0.184,0.438 -0.386,0.867 -0.577,1.301c-0.053,0.125 -0.105,0.25 -0.156,0.376c-0.093,0.236 -0.181,0.474 -0.25,0.719c-0.055,0.198 -0.031,0.943 -0.009,1.035c0.08,0.301 0.188,0.592 0.339,0.865c0.184,0.334 0.423,0.634 0.699,0.896c0.105,0.099 0.216,0.187 0.328,0.278c0.306,0.246 0.639,0.455 0.994,0.625c0.171,0.082 0.347,0.152 0.525,0.219c0.313,0.119 0.629,0.221 0.955,0.295c0.183,0.041 0.368,0.074 0.553,0.1c0.087,0.012 0.174,0.019 0.26,0.031c0.309,0.04 0.618,0.064 0.93,0.064c0.273,0 0.543,-0.022 0.814,-0.055c0.105,-0.013 0.21,-0.023 0.314,-0.039c0.158,-0.025 0.313,-0.057 0.468,-0.095c0.154,-0.037 0.308,-0.074 0.459,-0.124c0.075,-0.024 0.149,-0.052 0.223,-0.081c0.048,-0.018 0.095,-0.031 0.141,-0.055c0.05,-0.027 0.097,-0.058 0.144,-0.092c0.018,-0.013 0.037,-0.024 0.056,-0.037c0.063,-0.045 0.122,-0.096 0.177,-0.15c0.06,-0.059 0.113,-0.123 0.167,-0.187c0.066,-0.078 0.13,-0.156 0.187,-0.241c0.188,-0.281 0.323,-0.601 0.386,-0.933c0.007,-0.039 0.011,-0.078 0.018,-0.117c0.036,-0.189 0.05,-0.385 0.02,-0.576c-0.019,-0.122 -0.056,-0.242 -0.122,-0.347l-0.012,-0.019c-0.032,-0.04 -0.033,-0.039 -0.071,-0.074l-0.068,-0.065c-0.169,-0.178 -0.325,-0.367 -0.45,-0.58c-0.27,-0.463 -0.407,-0.987 -0.446,-1.519c-0.025,-0.335 -0.012,-0.67 0.005,-1.005c0.007,-0.142 -0.098,-0.539 -0.166,-0.56c-0.513,-0.146 -1.047,-0.212 -1.577,-0.261c-0.468,-0.044 -0.938,-0.067 -1.408,-0.093c-0.25,-0.014 -0.505,-0.032 -0.759,-0.048c-0.198,-0.013 -0.396,-0.026 -0.594,-0.041c-0.177,-0.015 -0.355,-0.032 -0.532,-0.052l-0.083,-0.01l-0.077,-0.01l-0.602,-0.584l0.595,-0.591c0.096,-0.016 0.19,-0.035 0.285,-0.053c0.544,-0.114 1.079,-0.249 1.616,-0.378c0.252,-0.057 0.505,-0.112 0.758,-0.167c0.308,-0.063 0.615,-0.125 0.925,-0.177c0.233,-0.04 0.466,-0.075 0.701,-0.104c0.617,-0.075 1.251,-0.11 1.868,-0.007c0.246,0.041 0.488,0.106 0.719,0.2c0.152,0.062 0.299,0.147 0.433,0.241c0.131,0.092 0.254,0.197 0.365,0.312c0.147,0.153 0.273,0.324 0.379,0.507c0.216,0.374 0.341,0.787 0.436,1.206c0.053,0.253 0.103,0.507 0.154,0.761c0.02,0.087 0.85,0.877 1.135,1.276c0.33,0.462 0.58,0.981 0.746,1.524c0.112,0.369 0.185,0.746 0.227,1.128c0.018,0.162 0.022,0.327 0.024,0.489c0.003,0.348 -0.021,0.696 -0.071,1.041c-0.084,0.591 -0.246,1.172 -0.474,1.724c-0.116,0.279 -0.247,0.553 -0.399,0.813c-0.173,0.295 -0.374,0.575 -0.591,0.839c-0.147,0.179 -0.303,0.35 -0.468,0.512c-0.073,0.072 -0.148,0.145 -0.227,0.212c-0.426,0.36 -0.894,0.668 -1.403,0.9c-0.311,0.141 -0.636,0.248 -0.965,0.34c-0.273,0.076 -0.552,0.145 -0.832,0.192c-0.308,0.051 -0.618,0.088 -0.929,0.11c-0.195,0.015 -0.391,0.026 -0.586,0.026c-0.527,0 -1.055,-0.045 -1.576,-0.123c-0.476,-0.072 -0.948,-0.173 -1.409,-0.306c-0.14,-0.04 -0.277,-0.089 -0.413,-0.137c-0.294,-0.104 -0.584,-0.22 -0.868,-0.348c-0.506,-0.229 -0.999,-0.493 -1.461,-0.801c-0.306,-0.204 -0.597,-0.432 -0.874,-0.673c-0.33,-0.286 -0.64,-0.595 -0.925,-0.928c-0.141,-0.164 -0.281,-0.334 -0.404,-0.513c-0.246,-0.361 -0.467,-0.736 -0.649,-1.134c-0.348,-0.757 -0.558,-1.578 -0.599,-2.411c-0.015,-0.313 -0.008,-0.627 0.021,-0.939c0.01,-0.108 0.02,-0.217 0.036,-0.324c0.022,-0.147 0.058,-0.292 0.103,-0.433c0.091,-0.29 0.227,-0.561 0.385,-0.82c0.27,-0.442 0.601,-0.843 0.942,-1.231c0.316,-0.358 0.647,-0.702 0.966,-1.057c0.066,-0.075 0.066,-0.075 0.13,-0.151l0.805,-0.206l0.207,0.805c-0.014,0.033 -0.027,0.067 -0.041,0.1Z" style="fill:#000;fill-rule:nonzero;"/></g></svg>