<?xml version="1.0" standalone="no"?><!DOCTYPE svg PUBLIC "-//W3C//DTD SVG 1.1//EN" "http://www.w3.org/Graphics/SVG/1.1/DTD/svg11.dtd"><svg width="100%" height="100%" viewBox="0 0 61 61" version="1.1" xmlns="http://www.w3.org/2000/svg" xmlns:xlink="http://www.w3.org/1999/xlink" xml:space="preserve" style="fill-rule:evenodd;clip-rule:evenodd;stroke-linejoin:round;stroke-miterlimit:1.41421;"><g><path d="M18.78,33.791c0.511,0.984 1.065,1.947 1.745,2.826c0.046,0.058 0.044,0.059 0.092,0.114c0.406,0.45 0.832,0.883 1.269,1.303c0.509,0.49 1.035,0.963 1.58,1.413l0.018,0.015c0.071,-0.206 0.137,-0.413 0.193,-0.623c0.257,-0.95 0.377,-1.928 0.515,-2.901c0.001,-0.004 -0.002,0.015 -0.002,0.011c0.016,-0.114 0.032,-0.228 0.048,-0.342l-0.001,0.008c0.059,-0.452 0.12,-0.903 0.185,-1.354c0.088,-0.616 0.185,-1.231 0.321,-1.838c0.05,-0.22 0.103,-0.44 0.166,-0.656c0.059,-0.201 0.1,-0.35 0.2,-0.539c0.055,-0.104 0.119,-0.204 0.189,-0.3c0.222,-0.307 0.513,-0.559 0.851,-0.733c0.246,-0.127 0.496,-0.205 0.77,-0.244c0.224,-0.033 0.539,-0.029 0.76,0.01c0.144,0.026 0.285,0.065 0.423,0.114c0.118,0.042 0.231,0.1 0.341,0.159c0.082,0.044 0.159,0.096 0.236,0.149c0.413,0.283 0.724,0.691 1.009,1.096c0.129,0.183 0.253,0.369 0.376,0.555c0.102,0.155 0.2,0.315 0.299,0.472c0.222,0.355 0.443,0.712 0.664,1.068c0.001,0.001 -0.004,-0.008 -0.003,-0.006c0.081,0.129 0.161,0.257 0.241,0.386c0.002,0.003 -0.007,-0.012 -0.005,-0.009c0.124,0.196 0.249,0.391 0.371,0.588c0.002,0.002 -0.006,-0.01 -0.004,-0.008c0.042,0.068 0.084,0.136 0.126,0.203c0.002,0.003 -0.006,-0.011 -0.005,-0.008c0.043,0.067 0.085,0.134 0.127,0.201c0.366,0.574 0.738,1.145 1.141,1.694l0.029,0.041c0.146,-0.385 0.264,-0.779 0.385,-1.171c0.088,-0.285 0.177,-0.57 0.27,-0.854c0.052,-0.157 0.106,-0.314 0.161,-0.471c0.141,-0.385 0.292,-0.766 0.47,-1.135c0.321,-0.661 0.722,-1.283 1.223,-1.823c0.198,-0.214 0.411,-0.414 0.637,-0.598c0.106,-0.086 0.218,-0.163 0.323,-0.249c0.061,-0.048 0.119,-0.101 0.178,-0.152c0.3,-0.271 0.591,-0.553 0.889,-0.826c0.113,-0.101 0.227,-0.201 0.343,-0.3c0.495,-0.411 1.037,-0.782 1.661,-0.966c0.253,-0.075 0.516,-0.118 0.78,-0.123c0.643,-0.012 1.27,0.21 1.766,0.619c0.132,0.109 0.186,0.15 0.306,0.292c0.049,0.058 0.092,0.122 0.134,0.185c0.181,0.27 0.279,0.585 0.358,0.896c0.083,0.33 0.151,0.664 0.22,0.997l-0.017,0.009l0.248,1.119c0.03,0.14 0.059,0.28 0.088,0.421c0.001,0.002 -0.002,-0.009 -0.002,-0.007c0.063,0.298 0.127,0.595 0.189,0.892c0,0.003 -0.003,-0.01 -0.002,-0.007c0.032,0.155 0.066,0.31 0.099,0.465c0.172,0.786 0.355,1.57 0.568,2.346c0.159,0.582 0.333,1.162 0.539,1.729c0.165,0.452 0.346,0.901 0.577,1.324c0.062,0.114 0.128,0.228 0.2,0.337c0.061,0.093 0.126,0.185 0.203,0.266l-0.03,-0.025l0.027,0.027c0.041,-0.035 0.078,-0.073 0.115,-0.112c0.22,-0.237 0.402,-0.505 0.569,-0.781c0.213,-0.353 0.399,-0.722 0.569,-1.097c0.044,-0.098 0.043,-0.098 0.089,-0.207c0,-0.001 -0.001,0.004 -0.001,0.003c0.06,-0.144 0.121,-0.287 0.184,-0.43c0.067,-0.149 0.134,-0.298 0.203,-0.446c0.351,-0.743 0.728,-1.474 1.107,-2.203c0.167,-0.321 0.335,-0.641 0.501,-0.962c0,0 -0.001,0.003 -0.001,0.002c0.056,-0.109 0.216,-0.441 0.168,-0.328c0.167,-0.328 0.332,-0.657 0.494,-0.989c0,0 -0.002,0.003 -0.001,0.002c0.027,-0.055 0.053,-0.111 0.08,-0.166l-0.001,0.002c0.106,-0.217 0.21,-0.435 0.312,-0.654c0.286,-0.626 0.557,-1.26 0.775,-1.914c0.193,-0.58 0.345,-1.175 0.412,-1.783l0.007,-0.07l0.006,-0.07l0.062,-0.067l0.06,0.067c0.007,0.097 0.012,0.193 0.016,0.29c0.02,0.871 -0.117,1.739 -0.307,2.586c-0.215,0.957 -0.501,1.895 -0.813,2.824c-0.197,0.586 -0.403,1.168 -0.607,1.752c-0.119,0.338 -0.119,0.338 -0.237,0.677c0,0.001 0.001,-0.003 0.001,-0.002c-0.038,0.11 -0.158,0.438 -0.114,0.33c-0.09,0.266 -0.18,0.533 -0.266,0.8c-0.095,0.297 -0.188,0.595 -0.272,0.896c-0.062,0.22 -0.117,0.443 -0.179,0.663c-0.035,0.12 -0.072,0.24 -0.109,0.359c-0.199,0.619 -0.431,1.231 -0.749,1.799c-0.201,0.36 -0.438,0.707 -0.737,0.993c-0.335,0.321 -0.75,0.558 -1.214,0.623c-0.123,0.018 -0.248,0.023 -0.373,0.016c-0.153,-0.008 -0.305,-0.036 -0.452,-0.079c-0.326,-0.098 -0.627,-0.273 -0.894,-0.48c-0.494,-0.384 -0.887,-0.884 -1.228,-1.404c-0.399,-0.61 -0.735,-1.261 -1.044,-1.92c-0.219,-0.47 -0.423,-0.947 -0.619,-1.427c-0.229,-0.565 -0.444,-1.137 -0.651,-1.71c-0.154,-0.425 -0.303,-0.852 -0.448,-1.28c-0.109,-0.319 -0.21,-0.642 -0.314,-0.963l-0.032,-0.103c-0.075,0.085 -0.149,0.169 -0.224,0.253c-0.086,0.094 -0.171,0.187 -0.26,0.277c-0.078,0.078 -0.157,0.155 -0.239,0.229c-0.058,0.051 -0.119,0.099 -0.174,0.153c-0.042,0.042 -0.082,0.085 -0.121,0.13c-0.355,0.42 -0.54,0.96 -0.685,1.482c-0.184,0.659 -0.312,1.329 -0.471,1.993c-0.037,0.154 -0.076,0.307 -0.117,0.46c-0.097,0.355 -0.2,0.709 -0.33,1.053c-0.371,0.973 -0.911,1.883 -1.655,2.618c-0.222,0.219 -0.458,0.431 -0.723,0.599c-0.555,0.349 -1.213,0.507 -1.866,0.457c-0.319,-0.025 -0.637,-0.096 -0.936,-0.213l0,0c-0.755,-0.294 -1.387,-0.817 -1.94,-1.398c-0.434,-0.457 -0.829,-0.953 -1.2,-1.462c-0.264,-0.363 -0.51,-0.741 -0.755,-1.118c-0.043,0.156 -0.087,0.311 -0.132,0.466c-0.261,0.873 -0.569,1.733 -0.993,2.54c-0.332,0.631 -0.736,1.228 -1.232,1.74c-0.083,0.086 -0.168,0.172 -0.256,0.253c-0.045,0.042 -0.089,0.084 -0.138,0.122c-0.123,0.097 -0.24,0.172 -0.381,0.242c-0.332,0.165 -0.704,0.236 -1.073,0.218c-0.129,-0.007 -0.256,-0.026 -0.382,-0.052c-0.424,-0.088 -0.818,-0.308 -1.166,-0.557c-0.296,-0.212 -0.571,-0.452 -0.835,-0.701c-0.211,-0.2 -0.417,-0.405 -0.617,-0.616c-0.614,-0.644 -1.194,-1.321 -1.749,-2.016c-0.307,-0.384 -0.608,-0.773 -0.887,-1.177c-0.109,-0.157 -0.217,-0.315 -0.313,-0.48c-0.166,-0.285 -0.319,-0.578 -0.465,-0.873c-0.404,-0.819 -0.739,-1.67 -1.041,-2.532c-0.257,-0.736 -0.487,-1.481 -0.731,-2.221c-0.052,-0.157 -0.106,-0.313 -0.162,-0.469c-0.08,-0.219 -0.163,-0.437 -0.263,-0.648c-0.019,-0.04 -0.019,-0.04 -0.04,-0.081l-0.015,-0.028c-0.042,0.043 -0.082,0.087 -0.122,0.131c-0.152,0.177 -0.289,0.364 -0.422,0.556c-0.257,0.369 -0.492,0.752 -0.718,1.14l0.001,-0.002c-1.034,1.79 -2.052,3.603 -3.074,5.411l-0.44,0.776l-0.081,0.029l-0.03,-0.08c0.809,-2.232 1.605,-4.469 2.432,-6.695c0.073,-0.194 0.148,-0.387 0.225,-0.579c0.087,-0.213 0.177,-0.425 0.272,-0.634c0.068,-0.148 0.14,-0.293 0.215,-0.437c0.052,-0.098 0.106,-0.195 0.163,-0.291c0.303,-0.516 0.704,-1.049 1.298,-1.24c0.102,-0.032 0.206,-0.054 0.312,-0.064c0.144,-0.014 0.29,-0.005 0.431,0.025c0.166,0.035 0.324,0.1 0.47,0.185c0.226,0.132 0.419,0.313 0.587,0.511c0.371,0.436 0.64,0.954 0.904,1.458c0.28,0.549 0.547,1.101 0.822,1.65c0.001,0.001 -0.002,-0.006 -0.001,-0.004c0.066,0.131 0.133,0.261 0.2,0.392Z" style="fill:#000;fill-rule:nonzero;"/><path d="M19.472,9.708c0.081,0.012 0.164,0.021 0.245,0.037c0.228,0.045 0.451,0.119 0.663,0.215c0.242,0.11 0.468,0.253 0.675,0.42c0.174,0.139 0.334,0.295 0.48,0.463c0.216,0.246 0.405,0.517 0.561,0.804c0.209,0.386 0.359,0.801 0.472,1.224c0.137,0.507 0.222,1.026 0.275,1.548c0.045,0.434 0.066,0.872 0.064,1.309c0,0.336 -0.014,0.673 -0.043,1.008c-0.019,0.227 -0.045,0.454 -0.078,0.679c-0.025,0.171 -0.055,0.341 -0.089,0.51c-0.224,1.103 -0.664,2.208 -1.487,3.004c-0.117,0.114 -0.242,0.22 -0.372,0.318c-0.175,0.131 -0.361,0.247 -0.557,0.346c-0.249,0.126 -0.515,0.224 -0.78,0.314c-0.523,0.178 -1.067,0.305 -1.619,0.338c-0.488,0.029 -0.982,-0.015 -1.452,-0.151c-0.35,-0.101 -0.684,-0.252 -0.99,-0.449c-0.258,-0.166 -0.494,-0.365 -0.702,-0.59c-0.162,-0.175 -0.306,-0.365 -0.433,-0.567c-0.094,-0.149 -0.177,-0.305 -0.25,-0.465c-0.488,-1.063 -0.512,-2.277 -0.362,-3.417c0.03,-0.232 0.068,-0.462 0.112,-0.691c0.053,-0.273 0.115,-0.543 0.184,-0.812c0.111,-0.433 0.241,-0.861 0.391,-1.282c0.058,-0.162 0.119,-0.322 0.183,-0.481c0.046,-0.113 0.094,-0.225 0.152,-0.332c0.205,-0.38 0.509,-0.704 0.876,-0.933c0.197,-0.123 0.408,-0.212 0.629,-0.28l0.046,-0.013c0.04,-0.091 0.04,-0.091 0.082,-0.181c0.049,-0.097 0.049,-0.097 0.099,-0.192c0.149,-0.263 0.317,-0.513 0.522,-0.735c0.404,-0.437 0.926,-0.761 1.506,-0.902c0.164,-0.039 0.325,-0.064 0.492,-0.075c0.084,-0.006 0.169,-0.004 0.253,-0.006c0.084,0.006 0.168,0.011 0.252,0.017Z" style="fill:#000;fill-rule:nonzero;"/><path d="M39.665,6.87c0.161,0.007 0.322,0.015 0.483,0.033c0.429,0.048 0.852,0.147 1.255,0.3c0.399,0.152 0.778,0.358 1.122,0.611c0.249,0.183 0.48,0.391 0.689,0.619c0.167,0.182 0.319,0.377 0.457,0.581c0.805,1.191 1.077,2.659 1.057,4.075c-0.004,0.242 -0.016,0.483 -0.036,0.724c-0.022,0.278 -0.056,0.555 -0.098,0.83c-0.06,0.389 -0.138,0.774 -0.234,1.155c-0.131,0.521 -0.296,1.033 -0.495,1.531c-0.278,0.693 -0.625,1.364 -1.072,1.962c-0.253,0.338 -0.539,0.657 -0.87,0.92c-0.55,0.439 -1.206,0.715 -1.897,0.836c-0.409,0.072 -0.822,0.085 -1.236,0.099c-0.211,0.007 -0.421,0.015 -0.632,0.013c-0.41,-0.003 -0.821,-0.033 -1.227,-0.096c-0.534,-0.083 -1.06,-0.224 -1.558,-0.433c-0.667,-0.281 -1.282,-0.688 -1.783,-1.212c-0.242,-0.253 -0.457,-0.531 -0.641,-0.828c-0.236,-0.383 -0.419,-0.798 -0.547,-1.229c-0.058,-0.196 -0.105,-0.395 -0.141,-0.596c-0.265,-1.479 0.062,-3 0.627,-4.372c0.102,-0.247 0.213,-0.491 0.331,-0.732c0.147,-0.299 0.305,-0.594 0.471,-0.883c0.208,-0.364 0.43,-0.719 0.656,-1.073c0.358,-0.551 0.727,-1.096 1.086,-1.646c0.163,-0.239 0.354,-0.452 0.585,-0.627c0.487,-0.368 1.102,-0.547 1.709,-0.498c0.249,0.02 0.489,0.079 0.721,0.168c0.076,-0.034 0.076,-0.033 0.152,-0.065c0.121,-0.044 0.242,-0.083 0.367,-0.11c0.157,-0.035 0.314,-0.051 0.475,-0.058c0.112,-0.001 0.112,0 0.224,0.001ZM38.841,11.967c-0.323,0.49 -0.644,0.984 -0.927,1.499c-0.239,0.436 -0.451,0.89 -0.595,1.367c-0.079,0.259 -0.141,0.528 -0.15,0.8c-0.003,0.069 -0.001,0.139 0.007,0.208c0.005,0.041 0.012,0.083 0.028,0.121c0.025,0.02 0.054,0.034 0.083,0.048c0.163,0.073 0.344,0.106 0.52,0.127c0.355,0.04 0.712,0.015 1.067,0.004l0.02,-0.001c0.199,-0.321 0.344,-0.678 0.463,-1.036c0.197,-0.59 0.324,-1.21 0.361,-1.831c0.017,-0.274 0.016,-0.55 -0.016,-0.823c-0.022,-0.184 -0.137,-0.567 -0.143,-0.58c-0.061,-0.004 -0.61,-0.065 -0.61,-0.065c-0.036,0.054 -0.072,0.108 -0.108,0.162Z" style="fill:#000;fill-rule:nonzero;"/></g></svg>