<?xml version="1.0" standalone="no"?><!DOCTYPE svg PUBLIC "-//W3C//DTD SVG 1.1//EN" "http://www.w3.org/Graphics/SVG/1.1/DTD/svg11.dtd"><svg width="100%" height="100%" viewBox="0 0 61 61" version="1.1" xmlns="http://www.w3.org/2000/svg" xmlns:xlink="http://www.w3.org/1999/xlink" xml:space="preserve" style="fill-rule:evenodd;clip-rule:evenodd;stroke-linejoin:round;stroke-miterlimit:1.41421;"><g><path d="M22.201,13.504l0,0.011c0,-0.146 -0.001,-0.292 -0.002,-0.439l-0.001,-0.068c-0.096,-0.013 -0.193,-0.021 -0.289,-0.028c-0.361,-0.022 -0.722,-0.024 -1.083,-0.013c-0.193,0.006 -0.385,0.017 -0.578,0.026c-0.48,0.022 -0.96,0.052 -1.439,0.093c-0.65,0.055 -1.297,0.125 -1.945,0.196c-0.001,0 0.003,0 0.002,0c-0.184,0.021 -0.368,0.042 -0.552,0.062c-0.291,0.028 -0.581,0.055 -0.871,0.078c-0.771,0.053 -1.543,0.077 -2.315,0.094c-1.039,0.024 -2.082,0.036 -3.119,0.051c-0.631,0.009 -1.253,0.02 -1.884,0.022c-0.156,0.001 -0.311,0.002 -0.467,0.003c-0.154,0.001 -0.613,0.023 -0.461,0.003c-0.447,0.006 -0.895,0.012 -1.342,0.02c-0.989,0.023 -3.269,0.079 -3.269,0.079c0.135,-0.051 0.272,-0.101 0.409,-0.149c1.038,-0.357 2.1,-0.646 3.161,-0.925c0.901,-0.237 1.803,-0.469 2.71,-0.679c0.901,-0.209 1.803,-0.415 2.704,-0.624c0.142,-0.032 0.284,-0.066 0.426,-0.099c0.001,0 -0.002,0.001 -0.002,0.001c0.138,-0.033 0.552,-0.115 0.412,-0.097c0.384,-0.092 0.766,-0.184 1.149,-0.278c0.417,-0.105 0.834,-0.21 1.248,-0.329c0.297,-0.085 0.592,-0.18 0.887,-0.273c0.437,-0.13 0.874,-0.26 1.312,-0.387c0.903,-0.258 1.808,-0.508 2.726,-0.709c0.274,-0.06 0.552,-0.108 0.829,-0.155c0.566,-0.094 1.135,-0.164 1.708,-0.187l0.012,-0.026c0.097,-0.189 0.203,-0.366 0.341,-0.531c0.082,-0.098 0.41,-0.356 0.462,-0.39c0.109,-0.073 0.23,-0.126 0.344,-0.189l0.003,-0.001c0.123,-0.042 0.243,-0.094 0.369,-0.126c0.379,-0.094 0.78,-0.089 1.157,0.015c0.125,0.034 0.243,0.09 0.365,0.135l0.002,0c0.267,0.151 0.345,0.175 0.572,0.384c0.171,0.156 0.316,0.337 0.432,0.536c0.058,0.1 0.104,0.206 0.151,0.311c0.031,0.071 0.062,0.143 0.083,0.218c0.029,0.103 0.043,0.21 0.065,0.315c0.065,0.315 0.122,0.631 0.17,0.949c0.068,0.452 0.124,0.906 0.174,1.36c0.029,0.265 0.057,0.53 0.079,0.795c0.016,0.191 0.026,0.383 0.038,0.575c0.029,0.479 0.052,0.959 0.069,1.439c0.006,0.182 0.005,0.367 0.007,0.549c0.003,0.431 0.001,0.861 -0.005,1.291c-0.003,0.134 -0.003,0.133 -0.009,0.266c-0.02,0.429 -0.044,0.857 -0.076,1.286c-0.016,0.209 -0.032,0.419 -0.053,0.628c-0.048,0.451 -0.112,0.9 -0.187,1.346c-0.056,0.338 -0.119,0.674 -0.194,1.008c-0.035,0.154 -0.078,0.307 -0.121,0.459c-0.131,0.464 -0.289,0.923 -0.499,1.357c-0.166,0.344 -0.366,0.672 -0.615,0.963c-0.428,0.5 -0.977,0.882 -1.567,1.167c-0.627,0.302 -1.3,0.499 -1.978,0.648c-0.313,0.069 -0.633,0.115 -0.95,0.163c-0.26,0.037 -0.52,0.071 -0.78,0.103c-0.001,0.001 0.005,-0.001 0.004,0c-0.125,0.015 -0.249,0.03 -0.373,0.046c-0.197,0.025 -0.393,0.056 -0.59,0.081c-0.377,0.043 -0.755,0.075 -1.135,0.087c-0.484,0.016 -0.969,0.005 -1.452,-0.029c-0.267,-0.019 -0.535,-0.053 -0.8,-0.092c-0.474,-0.069 -0.945,-0.163 -1.41,-0.281c-1.004,-0.255 -1.982,-0.625 -2.896,-1.111c-0.425,-0.226 -0.834,-0.486 -1.225,-0.765c-0.829,-0.593 -1.582,-1.297 -2.208,-2.103c-0.372,-0.478 -0.699,-0.992 -0.972,-1.534c-0.205,-0.408 -0.38,-0.832 -0.521,-1.267c-0.079,-0.244 -0.152,-0.493 -0.205,-0.744c-0.134,-0.621 -0.207,-1.253 -0.214,-1.889c-0.005,-0.444 0.024,-0.886 0.074,-1.327l0.052,-0.074l0.054,0.073c0.021,0.166 0.021,0.166 0.046,0.331c0.076,0.469 0.176,0.933 0.318,1.386c0.145,0.464 0.33,0.911 0.547,1.345c0.281,0.561 0.625,1.088 1.03,1.566c0.734,0.868 1.658,1.564 2.678,2.062c0.496,0.243 1.013,0.433 1.543,0.59c0.266,0.079 0.535,0.15 0.807,0.208c0.727,0.155 1.47,0.231 2.213,0.229c0.357,-0.001 0.712,-0.023 1.067,-0.058c0.446,-0.044 0.889,-0.108 1.327,-0.209c0.189,-0.043 0.378,-0.092 0.565,-0.147c0.153,-0.045 0.305,-0.097 0.458,-0.143c0.133,-0.04 0.267,-0.079 0.401,-0.118c0.094,-0.021 0.186,-0.055 0.279,-0.083c0.225,-0.068 0.225,-0.067 0.425,-0.13c0.241,-0.078 0.48,-0.162 0.718,-0.249c0.18,-0.065 0.358,-0.132 0.533,-0.21c0.132,-0.059 0.262,-0.123 0.386,-0.198c0.083,-0.051 0.192,-0.4 0.215,-0.532c0.028,-0.159 0.046,-0.318 0.068,-0.477c0.06,-0.439 0.102,-0.88 0.129,-1.323c0.01,-0.173 0.016,-0.347 0.025,-0.52c0.01,-0.178 0.022,-0.355 0.03,-0.532c0.015,-0.307 0.024,-0.614 0.031,-0.921c0.001,-0.004 0,0.019 0,0.015c0.007,-0.394 0.023,-0.787 0.031,-1.18c0.007,-0.313 0.009,-0.627 0.011,-0.94c0,-0.004 0,0.014 0,0.011c0,-0.078 0.002,-0.156 0.004,-0.234c0.003,-0.23 0.005,-0.46 0.007,-0.691c0,-0.003 0,0.015 0,0.011c0,-0.078 0,-0.155 0,-0.233Z" style="fill:#000;fill-rule:nonzero;"/><path d="M34.472,7.675l0,0l0.231,-0.13l0.244,-0.102l0,0c0.086,-0.024 0.17,-0.057 0.259,-0.071l0,0c0.258,-0.038 0.324,-0.061 0.586,-0.046c0.098,0.006 0.195,0.024 0.293,0.037l0.004,0.001c0.118,0.033 0.239,0.057 0.354,0.1c0.053,0.02 0.375,0.169 0.476,0.242c0.12,0.087 0.229,0.192 0.335,0.295c0.282,0.28 0.553,0.57 0.832,0.851c0.218,0.215 0.437,0.427 0.669,0.626c0.14,0.121 3.723,0.685 3.723,0.685c6.747,0.722 6.748,0.711 13.484,1.528l0.053,0.053l-0.053,0.053l-5.993,0.727c-5.524,0.59 -5.52,0.626 -11.053,1.116l-0.13,0c-0.137,-0.008 -0.159,-0.007 -0.294,-0.025c-0.166,-0.022 -0.327,-0.059 -0.488,-0.103c0.007,0.183 0.012,0.367 0.016,0.55c0.001,0.243 -0.005,0.486 -0.033,0.726c-0.018,0.157 -0.048,0.312 -0.072,0.467c-0.02,0.143 -0.037,0.285 -0.053,0.428c-0.017,0.166 -0.03,0.333 -0.039,0.5c-0.016,0.258 -0.029,0.515 -0.025,0.774c0.004,0.215 0.02,0.428 0.038,0.642c0.016,0.177 0.033,0.354 0.061,0.531c0.041,0.262 0.103,0.518 0.181,0.771c0.071,0.233 0.149,0.462 0.254,0.683c0.084,0.177 0.184,0.345 0.291,0.51c0.117,0.18 0.242,0.354 0.386,0.514c0.175,0.194 0.37,0.37 0.581,0.526c0.303,0.224 0.635,0.406 0.981,0.555c0.214,0.091 0.435,0.168 0.656,0.241c0.639,0.211 1.309,0.33 1.979,0.378c0.131,0.014 0.13,0.014 0.26,0.031c0.214,0.032 0.214,0.033 0.427,0.068c0.351,0.059 0.7,0.121 1.05,0.18c0.192,0.033 0.385,0.062 0.577,0.095c0.584,0.098 1.171,0.189 1.764,0.216l0.019,0.001c0.374,-0.327 0.752,-0.654 1.124,-0.977c0.284,-0.239 0.566,-0.479 0.848,-0.72c0.725,-0.629 1.436,-1.274 2.099,-1.97c0.211,-0.222 0.416,-0.449 0.617,-0.68c0.19,-0.217 0.373,-0.439 0.562,-0.657c0.205,-0.232 0.411,-0.462 0.618,-0.692c0.001,-0.001 -0.002,0.002 -0.001,0.002c0.074,-0.083 0.148,-0.167 0.222,-0.251c0.359,-0.413 0.713,-0.835 0.971,-1.321c0.19,-0.359 0.326,-0.743 0.417,-1.139c0.052,-0.225 0.089,-0.453 0.118,-0.683l0.054,-0.065l0.052,0.066c0.012,0.105 0.023,0.209 0.032,0.314c0.018,0.257 0.025,0.513 0.012,0.771c-0.018,0.345 -0.072,0.688 -0.161,1.021c-0.107,0.397 -0.262,0.785 -0.448,1.152c-0.102,0.202 -0.21,0.401 -0.32,0.599c-0.177,0.319 -0.357,0.632 -0.533,0.952c-0.136,0.252 -0.266,0.503 -0.4,0.753c-0.313,0.572 -0.647,1.131 -1.005,1.676c-0.551,0.837 -1.149,1.641 -1.755,2.438c-0.179,0.235 -0.363,0.466 -0.546,0.699c0,0 0.002,-0.002 0.002,-0.002c-0.222,0.282 -0.442,0.565 -0.66,0.849l-0.146,0.188c-0.089,0.094 -0.184,0.178 -0.29,0.253c-0.455,0.322 -1.023,0.435 -1.565,0.508c-0.351,0.048 -0.705,0.075 -1.058,0.094c-0.32,0.017 -0.641,0.03 -0.961,0.035c-0.634,0.008 -1.267,-0.008 -1.901,-0.007c-0.091,0.002 -0.091,0.001 -0.181,0.005c-0.038,0.004 -0.038,0.004 -0.076,0.01c-0.145,0.012 -0.144,0.011 -0.289,0.019c-0.509,0.023 -1.017,0.023 -1.526,-0.012c-0.393,-0.027 -0.785,-0.076 -1.174,-0.142c-0.094,-0.015 -0.193,-0.038 -0.287,-0.059c-0.234,-0.052 -0.467,-0.111 -0.696,-0.179c-0.812,-0.241 -1.593,-0.586 -2.308,-1.039c-0.589,-0.374 -1.132,-0.82 -1.611,-1.327c-0.546,-0.577 -0.993,-1.243 -1.35,-1.952c-0.105,-0.209 -0.202,-0.422 -0.291,-0.638c-0.038,-0.093 -0.077,-0.187 -0.11,-0.282c-0.28,-0.792 -0.462,-1.618 -0.545,-2.454c-0.035,-0.36 -0.043,-0.725 -0.042,-1.087c0.002,-0.249 0.011,-0.499 0.026,-0.748c0.01,-0.156 0.02,-0.313 0.037,-0.468c0.063,-0.552 0.153,-1.101 0.276,-1.644c0.011,-0.039 0.009,-0.088 0.012,-0.129c0.005,-0.062 0.011,-0.124 0.016,-0.186c0.012,-0.176 0.022,-0.352 0.032,-0.528c0.001,-0.003 0,0.012 0,0.009c0.004,-0.069 0.007,-0.138 0.01,-0.207l0.001,0.01c0.039,-0.869 0.07,-1.737 0.114,-2.606c0.009,-0.154 0.018,-0.309 0.029,-0.463c0.046,-0.507 0.091,-1.043 0.334,-1.501c0.059,-0.111 0.129,-0.216 0.202,-0.318c0.061,-0.085 0.281,-0.289 0.336,-0.342c0.077,-0.058 0.149,-0.125 0.232,-0.172ZM33.144,14.183c0.003,-0.009 0.002,-0.009 0.004,-0.019l-0.005,0.049c0.006,-0.038 0.01,-0.076 0.014,-0.114c-0.005,0.028 -0.009,0.056 -0.013,0.084Z" style="fill:#000;fill-rule:nonzero;"/><path d="M36.57,32.008c0.476,0.013 0.96,0.07 1.411,0.233c0.294,0.106 0.576,0.252 0.823,0.445c0.196,0.153 0.37,0.335 0.512,0.541c0.092,0.134 0.17,0.277 0.233,0.427c0.046,0.109 0.084,0.222 0.114,0.337c0.235,0.895 -0.023,1.841 -0.415,2.653c-0.066,0.137 -0.137,0.271 -0.211,0.403c-0.11,0.197 -0.229,0.39 -0.354,0.577c-0.155,0.233 -0.319,0.461 -0.492,0.682c-0.246,0.314 -0.547,0.58 -0.87,0.814c-0.381,0.277 -0.796,0.507 -1.223,0.705c-0.493,0.227 -1.004,0.413 -1.524,0.57c-0.528,0.159 -1.068,0.278 -1.612,0.374c-0.614,0.108 -1.234,0.181 -1.858,0.209c-0.303,0.013 -0.609,0.022 -0.913,0.015c-0.744,-0.017 -1.488,-0.078 -2.23,-0.142c-0.286,-0.024 -0.572,-0.048 -0.858,-0.072c-0.124,-0.01 -0.249,-0.017 -0.373,-0.027c-0.397,-0.034 -0.789,-0.075 -1.186,-0.116c-0.125,-0.014 -0.251,-0.029 -0.376,-0.044c-0.447,-0.064 -0.894,-0.147 -1.333,-0.254c-0.106,-0.026 -0.212,-0.054 -0.318,-0.083c-0.079,-0.022 -0.161,-0.05 -0.239,-0.076c-0.21,-0.07 -0.418,-0.148 -0.624,-0.23c-0.79,-0.315 -1.574,-0.661 -2.259,-1.173c-0.464,-0.348 -0.862,-0.786 -1.161,-1.283c-0.001,0 0.002,0 0.001,-0.001c-0.046,-0.086 -0.095,-0.171 -0.138,-0.26c-0.179,-0.372 -0.293,-0.774 -0.327,-1.185c-0.027,-0.316 -0.006,-0.635 0.059,-0.945c0.056,-0.26 0.143,-0.514 0.259,-0.754c0.067,-0.139 0.146,-0.27 0.225,-0.401l0.002,0.001c0.05,-0.075 0.05,-0.075 0.103,-0.148c0.05,-0.068 0.05,-0.067 0.101,-0.134c0.339,-0.417 0.752,-0.761 1.21,-1.041c0.142,-0.087 0.292,-0.164 0.442,-0.236c0.37,-0.18 0.756,-0.325 1.149,-0.447c0.64,-0.199 1.298,-0.33 1.965,-0.402c0.126,-0.013 0.252,-0.02 0.378,-0.028c0.332,-0.02 0.665,-0.026 0.997,-0.023c0.382,0.004 0.763,0.021 1.144,0.048c0.216,0.015 0.433,0.029 0.648,0.055c0.624,0.075 1.246,0.171 1.866,0.278c0.672,0.116 1.342,0.24 2.014,0.359c0.179,0.03 0.359,0.06 0.538,0.09c0.271,0.042 0.541,0.082 0.813,0.119l4,0.627c-0.403,-0.157 -1.268,-0.443 -1.268,-0.443l-1.05,-0.217l0.99,-0.319c0.326,-0.045 0.653,-0.073 0.982,-0.079c0.078,-0.001 0.155,0 0.233,0.001ZM37.785,34.657c0.005,-0.014 0.097,-0.304 0.097,-0.304c0.002,-0.034 -0.271,-0.729 -0.279,-0.736l0.013,0.009c-0.022,-0.02 -0.046,-0.038 -0.067,-0.06c-0.003,-0.003 0.016,0.011 0.013,0.008c-0.061,-0.057 -0.132,-0.107 -0.201,-0.155c-0.169,-0.119 -0.305,-0.073 -0.305,-0.073l-0.385,0.094l-3.992,0.917c-0.286,0.04 -0.286,0.04 -0.572,0.076c-0.964,0.114 -1.929,0.196 -2.893,0.293c-0.294,0.031 -0.293,0.031 -0.586,0.064c-0.383,0.046 -0.765,0.096 -1.146,0.153c-0.231,0.035 -0.464,0.064 -0.695,0.102c-0.597,0.099 -1.194,0.226 -1.767,0.421l-0.033,0.01c0.181,0.055 0.364,0.1 0.549,0.143c0.146,0.031 0.293,0.058 0.439,0.089c0.207,0.044 0.415,0.085 0.623,0.126c0.279,0.054 0.559,0.104 0.839,0.157c0.132,0.029 0.265,0.06 0.397,0.09l0.693,0.153l0.161,0.047c0.423,0.101 0.846,0.199 1.272,0.288c0.211,0.044 0.423,0.084 0.635,0.124c0.382,0.073 0.763,0.15 1.15,0.191c0.619,0.066 1.243,0.072 1.865,0.045c0.5,-0.022 0.999,-0.061 1.491,-0.162c0.324,-0.066 0.645,-0.158 0.944,-0.303c0.015,-0.008 0.052,-0.029 0.068,-0.036l0.036,-0.021c0.089,-0.064 0.175,-0.131 0.261,-0.198c0.362,-0.292 0.71,-0.602 1.003,-0.966c0.095,-0.119 0.184,-0.244 0.261,-0.376c0.043,-0.075 0.111,-0.21 0.111,-0.21Z" style="fill:#000;fill-rule:nonzero;"/></g></svg>