<?xml version="1.0" standalone="no"?><!DOCTYPE svg PUBLIC "-//W3C//DTD SVG 1.1//EN" "http://www.w3.org/Graphics/SVG/1.1/DTD/svg11.dtd"><svg width="100%" height="100%" viewBox="0 0 61 61" version="1.1" xmlns="http://www.w3.org/2000/svg" xmlns:xlink="http://www.w3.org/1999/xlink" xml:space="preserve" style="fill-rule:evenodd;clip-rule:evenodd;stroke-linejoin:round;stroke-miterlimit:1.41421;"><g><path d="M41.06,42.479c-0.203,0.097 -0.949,0.42 -1.068,0.452c-0.354,0.093 -0.721,0.14 -1.084,0.178c-0.502,0.052 -1.006,0.083 -1.51,0.107c-1.463,0.07 -2.928,0.083 -4.393,0.088l-0.318,0c-1.241,-0.016 -2.482,-0.048 -3.723,-0.087l-0.372,-0.013c-0.74,-0.035 -1.478,-0.075 -2.217,-0.121c-0.673,-0.042 -1.347,-0.086 -2.018,-0.15c-0.41,-0.039 -0.82,-0.081 -1.229,-0.129c-0.331,-0.039 -0.66,-0.078 -0.984,-0.155c-0.784,-0.188 -1.52,-0.542 -2.197,-0.974c-0.676,-0.43 -1.304,-0.935 -1.899,-1.471c-0.317,-0.286 -0.629,-0.579 -0.927,-0.885c-0.586,-0.604 -1.145,-1.236 -1.683,-1.884c-0.696,-0.838 -1.357,-1.704 -1.991,-2.59c-0.266,-0.372 -0.527,-0.748 -0.783,-1.127c-0.137,-0.204 -0.274,-0.407 -0.406,-0.614c-0.257,-0.403 -0.506,-0.81 -0.748,-1.222c-0.179,-0.305 -0.354,-0.613 -0.522,-0.924c-0.111,-0.207 -0.22,-0.415 -0.324,-0.625c-0.077,-0.155 -0.151,-0.311 -0.221,-0.469c-0.238,-0.535 -0.441,-1.1 -0.409,-1.694c0.006,-0.106 0.023,-0.232 0.046,-0.336c0.029,-0.137 0.066,-0.261 0.121,-0.391c0.068,-0.162 0.134,-0.278 0.236,-0.42c0.058,-0.081 0.144,-0.18 0.216,-0.253c0.084,-0.086 0.175,-0.165 0.272,-0.237c0.468,-0.351 1.043,-0.511 1.609,-0.622c0.155,-0.03 0.31,-0.057 0.465,-0.08c0.254,-0.039 0.507,-0.073 0.762,-0.103c0.286,-0.034 0.572,-0.063 0.859,-0.09c0.426,-0.041 0.853,-0.073 1.281,-0.102c0.469,-0.031 0.939,-0.059 1.408,-0.086c0.247,-0.026 0.497,-0.027 0.746,-0.041c0.739,-0.04 1.665,-0.086 2.354,-0.122c0.001,0 -0.001,0 -0.001,0c0.27,-0.014 0.54,-0.028 0.81,-0.042c0,0 -0.004,0 -0.003,0c0.272,-0.015 0.544,-0.029 0.815,-0.044c0.002,0 -0.005,0.001 -0.004,0.001c0.408,-0.023 0.814,-0.044 1.222,-0.064c0.001,0 -0.004,0 -0.003,0c0.402,-0.02 0.804,-0.041 1.206,-0.063c1.35,-0.077 2.7,-0.165 4.044,-0.312c0.499,-0.055 0.997,-0.118 1.493,-0.198c0.453,-0.073 0.904,-0.16 1.346,-0.284c0.164,-0.049 0.327,-0.098 0.491,-0.147c0.001,0 -0.004,0.001 -0.003,0.001c0.162,-0.049 0.324,-0.099 0.486,-0.149c0.939,-0.294 1.877,-0.6 2.806,-0.911l-0.002,0.001c0.302,-0.102 0.604,-0.204 0.907,-0.304l-0.001,0.001c0.597,-0.197 1.195,-0.393 1.792,-0.587c0.297,-0.095 0.593,-0.19 0.89,-0.284c1.275,-0.401 2.556,-0.782 3.853,-1.106c1.205,-0.302 2.421,-0.551 3.647,-0.751c-0.245,0.075 -0.489,0.152 -0.732,0.23c-1.23,0.403 -2.44,0.858 -3.632,1.362c-1.213,0.512 -2.409,1.074 -3.59,1.641c-0.001,0 0.002,-0.001 0.001,0c-0.14,0.068 -0.281,0.135 -0.421,0.203l0.001,0c-0.49,0.238 -0.978,0.48 -1.47,0.716c-0.813,0.389 -1.628,0.774 -2.447,1.15c-0.387,0.177 -0.775,0.353 -1.164,0.525c-0.278,0.123 -0.554,0.248 -0.835,0.363c-0.286,0.117 -0.579,0.219 -0.873,0.313c-0.703,0.225 -1.419,0.408 -2.137,0.575c-0.971,0.227 -1.95,0.422 -2.93,0.605c-0.663,0.124 -1.326,0.242 -1.99,0.357c-0.334,0.057 -0.668,0.116 -1.002,0.169c-1.878,0.299 -3.761,0.57 -5.64,0.866l0.004,0c-0.545,0.087 -1.089,0.176 -1.632,0.27c-0.192,0.035 -0.384,0.066 -0.576,0.099l-0.008,0.002c0.111,0.159 0.224,0.316 0.337,0.474c0.78,1.072 1.585,2.126 2.444,3.136c0.249,0.293 0.502,0.582 0.759,0.867c0.002,0.003 -0.009,-0.01 -0.007,-0.008c0.596,0.655 1.209,1.291 1.857,1.894c0.214,0.199 0.429,0.398 0.651,0.589c0.389,0.335 0.794,0.656 1.228,0.931c0.141,0.089 0.285,0.172 0.433,0.248c0.125,0.064 0.252,0.122 0.385,0.166c0.09,0.03 0.188,0.034 0.281,0.044c0.063,0.008 0.127,0.015 0.191,0.021c0.373,0.04 0.746,0.074 1.12,0.106c0.085,0.007 0.17,0.014 0.255,0.02c0.003,0.001 -0.011,0 -0.008,0c0.362,0.028 0.724,0.063 1.087,0.092c0.602,0.049 1.205,0.095 1.808,0.136c0.305,0.021 0.611,0.039 0.917,0.06c0.339,0.024 0.677,0.05 1.016,0.074c0.658,0.046 1.316,0.088 1.975,0.126c0.328,0.019 0.656,0.035 0.984,0.054c0.313,0.018 0.625,0.04 0.938,0.058c1.026,0.06 2.053,0.111 3.08,0.137c0.473,0.012 0.947,0.019 1.421,0.011c0.136,-0.003 0.505,-0.019 0.599,-0.025c0.007,-0.001 0.043,-0.001 0.05,-0.004c0.365,-0.147 0.731,-0.291 1.098,-0.434c0.544,-0.211 1.09,-0.417 1.634,-0.63c0.629,-0.251 1.255,-0.513 1.861,-0.817c0.427,-0.213 0.845,-0.446 1.237,-0.719c0.17,-0.119 0.33,-0.249 0.49,-0.381c0.027,-0.024 0.051,-0.049 0.076,-0.075c0.128,-0.147 0.237,-0.308 0.338,-0.474c0.135,-0.22 0.254,-0.449 0.367,-0.681c0.165,-0.339 0.313,-0.686 0.455,-1.036c0.116,-0.285 0.228,-0.571 0.335,-0.86c0.29,-0.787 0.547,-1.585 0.795,-2.386c0,-0.003 -0.003,0.01 -0.002,0.008c0.198,-0.658 0.387,-1.319 0.57,-1.981c0.001,-0.002 -0.001,0.007 -0.001,0.005c0.062,-0.227 0.123,-0.454 0.184,-0.682c0,-0.001 -0.001,0.007 -0.001,0.005c0.06,-0.228 0.12,-0.457 0.18,-0.685l-0.001,0.004c0.059,-0.229 0.117,-0.458 0.175,-0.687c0,-0.001 -0.001,0.005 -0.001,0.004c0.029,-0.115 0.058,-0.23 0.086,-0.344c0.001,-0.001 -0.001,0.004 0,0.003c0.056,-0.227 0.112,-0.455 0.168,-0.682l-0.001,0.003c0.027,-0.113 0.054,-0.227 0.083,-0.34c0,-0.001 -0.001,0.004 -0.001,0.003c0.083,-0.334 0.164,-0.668 0.246,-1.002c0,-0.002 -0.001,0.006 -0.001,0.004c0.052,-0.218 0.105,-0.437 0.157,-0.655l-0.001,0.004c0.05,-0.214 0.101,-0.427 0.151,-0.641c0,-0.001 -0.001,0.005 0,0.004c0.048,-0.208 0.096,-0.415 0.144,-0.622c0.001,-0.001 0,0.003 0,0.002c0.09,-0.392 0.18,-0.784 0.269,-1.176l0,0.002l0.271,-1.196c-0.265,0.143 -0.526,0.292 -0.787,0.44l0.002,-0.001c-0.418,0.239 -0.835,0.479 -1.254,0.715c-0.239,0.133 -0.478,0.265 -0.718,0.396c-0.762,0.41 -1.533,0.803 -2.321,1.161c-0.301,0.136 -0.604,0.27 -0.91,0.394c-1.248,0.503 -2.532,0.92 -3.85,1.194c-0.721,0.15 -1.449,0.254 -2.182,0.316c0.181,-0.039 0.181,-0.039 0.362,-0.08c0.764,-0.181 1.514,-0.407 2.249,-0.682c1.078,-0.405 2.114,-0.906 3.118,-1.467c0.583,-0.326 1.155,-0.67 1.717,-1.033c0.7,-0.453 1.382,-0.933 2.057,-1.422c0.001,0 -0.002,0.001 -0.001,0.001c0.485,-0.354 0.964,-0.711 1.452,-1.062c0.154,-0.109 0.153,-0.109 0.308,-0.218c0.119,-0.08 0.169,-0.116 0.288,-0.193c0.079,-0.052 0.132,-0.085 0.206,-0.13c0.401,-0.244 0.868,-0.481 1.352,-0.379c0.061,0.013 0.122,0.031 0.181,0.055c0.085,0.034 0.165,0.08 0.239,0.135c0.092,0.07 0.172,0.154 0.237,0.25c0.078,0.114 0.134,0.243 0.168,0.377c0.046,0.178 0.049,0.359 0.04,0.541c-0.032,0.381 -0.082,0.767 -0.123,1.143c-0.039,0.362 -0.078,0.724 -0.117,1.085c-0.021,0.195 -0.03,0.391 -0.064,0.584c-0.139,1.227 -0.277,2.455 -0.443,3.679c-0.158,1.166 -0.334,2.329 -0.53,3.489c-0.214,1.263 -0.451,2.523 -0.741,3.771c-0.266,1.146 -0.573,2.287 -1.004,3.384c-0.164,0.414 -0.346,0.822 -0.56,1.213c-0.187,0.339 -0.398,0.667 -0.649,0.962c-0.183,0.216 -0.386,0.416 -0.593,0.607c-0.39,0.359 -0.809,0.683 -1.245,0.984c-1.222,0.843 -2.56,1.5 -3.896,2.141c-0.407,0.19 -0.809,0.375 -1.216,0.566Z" style="fill:#000;fill-rule:nonzero;"/><path d="M18.447,13.4c0.432,0.011 0.859,0.05 1.284,0.136l0.045,0.011c0.053,0.015 0.108,0.028 0.161,0.044c0.183,0.056 0.361,0.132 0.527,0.225c0.656,0.366 1.136,1.009 1.282,1.748c0.051,0.26 0.06,0.528 0.029,0.791c-0.036,0.306 -0.129,0.611 -0.272,0.884c-0.1,0.192 -0.177,0.307 -0.313,0.474c-0.229,0.283 -0.523,0.525 -0.836,0.712c-0.277,0.165 -0.57,0.299 -0.866,0.427l-0.058,0.025c-0.25,0.088 -0.502,0.171 -0.756,0.247c-0.109,0.032 -0.221,0.053 -0.332,0.079c0,0 0.002,-0.001 0.002,-0.001c-0.138,0.032 -0.276,0.067 -0.414,0.097c-0.1,0.021 -0.203,0.031 -0.304,0.043c-0.032,0.002 -0.08,-0.001 -0.08,-0.001l-0.245,0.062c-0.203,0.06 -0.406,0.123 -0.608,0.188l-0.106,0.035c-0.143,0.038 -0.286,0.078 -0.429,0.118c-0.423,0.121 -0.845,0.246 -1.265,0.378c-0.115,0.036 -0.233,0.065 -0.349,0.098c-0.175,0.049 -0.351,0.101 -0.526,0.151c-0.355,0.108 -0.708,0.22 -1.063,0.325c-0.175,0.052 -0.349,0.105 -0.523,0.159c-0.52,0.167 -1.037,0.344 -1.536,0.565c-0.133,0.059 -0.262,0.123 -0.391,0.187c-0.162,0.082 -0.322,0.165 -0.47,0.269l0.003,-0.004c-0.027,0.02 -0.341,0.345 -0.356,0.377c0,0 -0.021,0.059 -0.029,0.094c-0.014,-0.032 -0.028,-0.504 0.041,-0.71c0.155,-0.459 0.421,-0.874 0.694,-1.27c0.243,-0.35 0.502,-0.687 0.769,-1.018c0.123,-0.152 0.247,-0.303 0.373,-0.452c0.103,-0.122 0.205,-0.246 0.312,-0.365c0.16,-0.177 0.326,-0.348 0.491,-0.519c0.27,-0.281 0.545,-0.556 0.821,-0.831c0.09,-0.09 0.187,-0.171 0.281,-0.256c0.215,-0.195 0.432,-0.387 0.65,-0.578c-0.366,-0.226 -0.681,-0.573 -1.099,-0.677c-1.362,-0.84 -1.349,-0.859 -2.677,-1.752l2.154,-0.207c0.294,-0.016 2.626,-0.145 2.617,-0.148l0.118,-0.007c0.485,-0.003 0.973,0.043 1.454,-0.013c0.105,-0.006 0.209,-0.02 0.313,-0.032c0.187,-0.022 0.373,-0.045 0.56,-0.067l0.337,-0.035c0.083,-0.004 0.167,-0.005 0.25,-0.007c0.168,-0.001 0.167,-0.002 0.335,0.001Z" style="fill:#000;fill-rule:nonzero;"/><path d="M38.186,10.266l0.184,-0.009c0.288,0.002 0.575,-0.002 0.863,-0.006c0.074,-0.001 0.148,0.005 0.222,0.007c0.151,0.005 0.302,0.01 0.453,0.014c0.454,0.011 0.907,0.019 1.361,0.026c0.684,0.042 1.368,0.075 2.052,0.11l0.124,0.006c0.632,0.051 1.264,0.103 1.895,0.155l0.27,0.024c0.797,0.091 1.594,0.188 2.388,0.303c0.399,0.058 0.8,0.114 1.196,0.189c0.491,0.092 0.978,0.207 1.46,0.335c-0.177,0.05 -0.177,0.049 -0.355,0.101c-0.353,0.107 -0.702,0.225 -1.052,0.343c-0.373,0.126 -0.748,0.249 -1.119,0.382c-0.668,0.238 -1.331,0.49 -1.993,0.745l-0.213,0.082c-0.24,0.085 -0.479,0.171 -0.719,0.257c-0.001,0 0.004,-0.001 0.003,-0.001c-0.436,0.158 -0.871,0.317 -1.308,0.473c-0.039,0.014 -0.078,0.026 -0.118,0.039c-0.32,0.105 -0.64,0.21 -0.96,0.314c-0.321,0.104 -0.641,0.207 -0.962,0.31l-0.058,0.018c-0.678,0.183 -1.356,0.364 -2.038,0.526c-0.086,0.021 -0.173,0.033 -0.259,0.049c-0.076,0.014 -0.152,0.028 -0.228,0.042c-0.154,0.027 -0.321,0.064 -0.476,0.082c-0.135,0.017 -0.298,0.035 -0.432,0.049c-0.073,0.008 -0.145,0.016 -0.218,0.023c-0.082,0.009 -0.164,0.021 -0.247,0.024c-0.207,0.009 -0.415,0.015 -0.623,0.019c-0.334,0.007 -0.669,-0.002 -1,-0.041c-0.06,-0.004 -0.06,-0.004 -0.119,-0.007c-0.114,-0.003 -0.114,-0.001 -0.228,0.001c-0.238,0.006 -0.475,0.015 -0.713,0.018c-0.336,0.002 -0.674,-0.005 -1.006,-0.06c-0.444,-0.074 -0.876,-0.224 -1.27,-0.44c-0.14,-0.077 -0.277,-0.157 -0.405,-0.252c-0.323,-0.239 -0.592,-0.553 -0.765,-0.917c-0.08,-0.17 -0.14,-0.348 -0.178,-0.532c-0.049,-0.244 -0.06,-0.499 -0.027,-0.745c0.04,-0.304 0.142,-0.596 0.294,-0.861c0.162,-0.282 0.382,-0.526 0.63,-0.735c0.085,-0.071 0.174,-0.144 0.268,-0.205c0.352,-0.225 0.725,-0.407 1.104,-0.581c0.001,-0.001 -0.004,0.003 -0.003,0.002c0.17,-0.076 0.34,-0.154 0.513,-0.225c0.043,-0.015 0.243,-0.109 0.335,-0.164c0.228,-0.129 0.463,-0.242 0.709,-0.334c0.469,-0.175 0.962,-0.277 1.457,-0.347c0.324,-0.045 0.65,-0.081 0.976,-0.111c0.154,-0.014 0.309,-0.022 0.464,-0.033c0.171,-0.015 0.341,-0.031 0.511,-0.05c0.326,-0.042 0.651,-0.098 0.966,-0.198c0.156,-0.05 0.307,-0.112 0.455,-0.182c-0.044,0.071 -0.043,0.071 -0.089,0.141c-0.08,0.119 -0.165,0.233 -0.258,0.343c-0.295,0.348 -0.642,0.648 -0.998,0.931c-0.145,0.116 -0.293,0.229 -0.441,0.341c-0.031,0.024 -0.061,0.048 -0.092,0.07c-0.067,0.049 -0.279,0.174 -0.203,0.143l0,0c0.007,0 0.013,0 0.02,-0.001Z" style="fill:#000;fill-rule:nonzero;"/></g></svg>