<?xml version="1.0" standalone="no"?><!DOCTYPE svg PUBLIC "-//W3C//DTD SVG 1.1//EN" "http://www.w3.org/Graphics/SVG/1.1/DTD/svg11.dtd"><svg width="100%" height="100%" viewBox="0 0 61 61" version="1.1" xmlns="http://www.w3.org/2000/svg" xmlns:xlink="http://www.w3.org/1999/xlink" xml:space="preserve" style="fill-rule:evenodd;clip-rule:evenodd;stroke-linejoin:round;stroke-miterlimit:1.41421;"><g><path d="M28.089,13.418c0.475,0.005 0.949,0.019 1.423,0.048c1.452,0.088 2.898,0.294 4.315,0.624c1.3,0.301 2.577,0.707 3.806,1.23c2.081,0.886 4.033,2.119 5.615,3.745c0.888,0.913 1.653,1.946 2.25,3.071c0.764,1.44 1.239,3.021 1.506,4.624c0.19,1.145 0.273,2.308 0.264,3.468c-0.011,1.396 -0.155,2.792 -0.425,4.162c-0.205,1.037 -0.482,2.059 -0.837,3.054c-0.585,1.642 -1.382,3.22 -2.436,4.611c-0.324,0.427 -0.673,0.833 -1.044,1.22c-0.25,0.258 -0.501,0.516 -0.754,0.77c-0.198,0.196 -0.397,0.392 -0.599,0.583c-0.629,0.593 -1.288,1.159 -2.003,1.646c-0.58,0.396 -1.2,0.742 -1.861,0.982c-0.228,0.082 -0.459,0.148 -0.693,0.206c-0.157,0.034 -0.314,0.065 -0.471,0.094c-2.751,0.493 -5.591,0.423 -8.34,-0.047c-1.375,-0.235 -2.733,-0.575 -4.054,-1.024c-1.257,-0.427 -2.482,-0.955 -3.644,-1.598c-1.353,-0.75 -2.625,-1.66 -3.721,-2.754c-0.38,-0.38 -0.744,-0.78 -1.07,-1.208c-0.253,-0.333 -0.481,-0.684 -0.684,-1.05c-0.658,-1.19 -1.022,-2.515 -1.197,-3.859c-0.123,-0.94 -0.154,-1.889 -0.164,-2.836c-0.004,-0.955 -0.002,-1.91 0.002,-2.864c0.012,-1.76 0.057,-3.53 0.376,-5.266c0.19,-1.036 0.482,-2.055 0.904,-3.022c0.43,-0.985 0.994,-1.908 1.67,-2.743c0.639,-0.791 1.374,-1.501 2.166,-2.137c0.256,-0.204 0.517,-0.401 0.783,-0.591c0.241,-0.173 0.485,-0.34 0.744,-0.486c0.472,-0.267 0.976,-0.469 1.494,-0.629l0.052,-0.129c0.025,-0.051 0.048,-0.103 0.074,-0.153c0.053,-0.101 0.113,-0.198 0.179,-0.291c0.265,-0.371 0.632,-0.666 1.051,-0.845c0.105,-0.045 0.213,-0.082 0.323,-0.112c0.055,-0.015 0.11,-0.027 0.166,-0.04c0.181,-0.036 0.362,-0.071 0.543,-0.104c0.568,-0.098 1.139,-0.178 1.713,-0.234c0.59,-0.058 1.182,-0.091 1.774,-0.108c0.268,-0.006 0.536,-0.008 0.804,-0.008Z" style="fill:#f20d0d;fill-rule:nonzero;"/></g></svg>