<?xml version="1.0" standalone="no"?><!DOCTYPE svg PUBLIC "-//W3C//DTD SVG 1.1//EN" "http://www.w3.org/Graphics/SVG/1.1/DTD/svg11.dtd"><svg width="100%" height="100%" viewBox="0 0 61 61" version="1.1" xmlns="http://www.w3.org/2000/svg" xmlns:xlink="http://www.w3.org/1999/xlink" xml:space="preserve" style="fill-rule:evenodd;clip-rule:evenodd;stroke-linejoin:round;stroke-miterlimit:1.41421;"><g><path d="M42.111,33.229l0.002,0c-0.341,0.04 -0.681,0.08 -1.022,0.121c-0.001,0 0.002,0 0.001,0c-0.34,0.04 -1.365,0.13 -1.022,0.121c-0.686,0.082 -1.376,0.138 -2.064,0.206c-0.683,0.067 -1.367,0.134 -2.05,0.202l-0.371,0.036c-0.556,0.042 -1.112,0.083 -1.669,0.123l-0.322,0.023c-0.233,0.012 -0.467,0.024 -0.7,0.035c-0.373,0.018 -0.746,0.044 -1.12,0.053c-0.292,0.006 -1.407,0.029 -1.74,0.034c-0.412,0.006 -0.823,-0.001 -1.235,-0.003c-0.188,0 -0.375,0.003 -0.563,-0.002c-1.162,-0.031 -2.324,-0.073 -3.485,-0.12l-0.221,-0.009c-0.922,-0.061 -1.844,-0.128 -2.766,-0.201c-0.257,-0.02 -0.513,-0.041 -0.77,-0.061c-0.001,0 0.004,0 0.003,0c-0.072,-0.006 -0.144,-0.01 -0.217,-0.017c-0.212,-0.02 -0.424,-0.041 -0.636,-0.062l0.004,0c-0.702,-0.066 -0.702,-0.067 -1.404,-0.132c-0.164,-0.015 -0.328,-0.029 -0.492,-0.044c-0.001,0 0.005,0 0.003,0c-0.166,-0.015 -0.666,-0.044 -0.499,-0.045l-0.507,-0.044c-0.17,-0.014 -0.34,-0.033 -0.509,-0.05c-0.339,-0.035 -0.678,-0.068 -1.017,-0.102c-0.334,-0.031 -0.667,-0.062 -1.001,-0.092c-0.971,-0.084 -1.942,-0.164 -2.916,-0.206c-0.43,-0.018 -0.86,-0.029 -1.29,-0.022c-0.176,0.003 -0.542,0.023 -0.542,0.023c-0.06,0.313 -0.101,0.632 -0.142,0.948c-0.054,0.414 -0.101,0.828 -0.146,1.243c-0.01,0.093 -0.051,0.485 -0.061,0.581c-0.016,0.166 -0.05,0.33 -0.05,0.497l-0.184,0.521l-0.154,-0.146c-0.165,-1.046 -0.34,-2.093 -0.46,-3.145c-0.029,-0.259 -0.056,-0.519 -0.068,-0.779c-0.005,-0.108 -0.009,-0.218 0,-0.326c0.008,-0.082 0.04,-0.172 0.077,-0.245c0.168,-0.334 0.538,-0.501 0.872,-0.622c0.047,-0.017 0.149,-0.052 0.184,-0.063c0.084,-0.028 0.185,-0.058 0.27,-0.083c0.151,-0.043 0.303,-0.081 0.457,-0.117c0.172,-0.04 0.345,-0.077 0.518,-0.113c0.259,-0.053 0.519,-0.102 0.779,-0.149c0.925,-0.167 1.856,-0.305 2.787,-0.434c0.816,-0.114 1.633,-0.222 2.452,-0.319c0.377,-0.045 0.757,-0.077 1.135,-0.114c0.85,-0.083 1.701,-0.162 2.552,-0.239c0.814,-0.059 1.629,-0.117 2.444,-0.18l-0.005,0c0.491,-0.039 0.982,-0.087 1.474,-0.117l-0.005,0c0.331,-0.02 0.661,-0.041 0.992,-0.063c0.001,0 -0.006,0 -0.005,0c0.166,-0.011 0.331,-0.022 0.497,-0.033c0.165,-0.011 0.66,-0.038 0.495,-0.035c0.482,-0.034 0.965,-0.069 1.447,-0.105c0.52,-0.026 1.039,-0.056 1.558,-0.084l0.213,-0.013c0.265,-0.01 0.529,-0.02 0.794,-0.031c0.339,-0.013 0.679,-0.034 1.018,-0.04l-0.005,0c0.339,-0.006 1.357,-0.03 1.018,-0.018l0.7,-0.015c0.108,0.001 0.216,0.001 0.323,0.001c0.002,0 -0.004,0 -0.003,0c0.341,0 1.365,-0.011 1.024,0.001l0.648,0c1.462,0.034 2.923,0.064 4.385,0.096c1.41,0.06 2.821,0.121 4.231,0.185l0.433,0.02c1.387,0.084 2.773,0.174 4.159,0.271l0.409,0.029c1.705,0.144 3.407,0.31 5.109,0.483l0.07,0.005c0.029,0.005 0.059,0.008 0.089,0.014c0.094,0.02 0.184,0.054 0.267,0.103c0.08,0.046 0.151,0.104 0.213,0.172c0.036,0.04 0.068,0.084 0.097,0.13c0.228,0.364 0.158,0.819 0.055,1.212c-0.023,0.089 -0.048,0.177 -0.075,0.265c-0.029,0.093 -0.06,0.186 -0.093,0.278c-0.045,0.131 -0.094,0.261 -0.144,0.391c-0.08,0.208 -0.165,0.413 -0.25,0.618c-0.09,0.213 -0.188,0.424 -0.285,0.634c-0.127,0.278 -0.258,0.554 -0.39,0.83c-0.172,0.362 -0.347,0.722 -0.522,1.082l-0.136,0.286l-0.202,0.13l0,0l-0.083,-0.226c0.137,-0.642 0.279,-1.282 0.415,-1.923c0.076,-0.371 0.148,-0.732 0.216,-1.106c0.076,-0.417 0.149,-0.835 0.188,-1.258l0.003,-0.031c-0.805,0.089 -1.599,0.182 -2.401,0.279l0.002,0c-0.501,0.061 -0.995,0.122 -1.492,0.185c-0.001,0.001 0.002,0 0.002,0c-0.199,0.026 -0.398,0.053 -0.597,0.077c-0.973,0.116 -1.946,0.232 -2.918,0.352l0.004,0c-0.338,0.043 -0.676,0.085 -1.014,0.127c-0.001,0.001 0.004,0 0.003,0c-0.508,0.066 -0.508,0.066 -1.017,0.124l0.003,0c-0.679,0.079 -1.358,0.158 -2.037,0.237ZM53.582,31.446l0,-0.001l-0.006,-0.01c0.002,0.004 0.004,0.008 0.006,0.011ZM53.557,31.343l-0.006,-0.021c0.002,0.007 0.001,0.015 -0.001,0.008c0.005,0.023 0.003,0.023 0.01,0.046l-0.008,-0.018c0.01,0.031 0.009,0.031 0.021,0.062l-0.009,-0.015l0.018,0.038c-0.001,-0.025 -0.003,-0.069 -0.005,-0.033c-0.001,-0.007 -0.014,-0.147 -0.01,-0.05l-0.008,-0.049l0.003,0.041l-0.01,-0.045c0.002,0.012 0.004,0.024 0.005,0.036Z" style="fill:#000;fill-rule:nonzero;"/><path d="M15.648,17.014c0.356,0.011 0.7,0.092 1.023,0.243c0.054,-0.025 0.109,-0.049 0.165,-0.072c0.318,-0.121 0.655,-0.181 0.995,-0.17c0.231,0.008 0.461,0.048 0.681,0.119c0.604,0.194 1.121,0.62 1.426,1.176c0.119,0.216 0.205,0.45 0.256,0.691c0.057,0.273 0.065,0.552 0.038,0.829c-0.065,0.662 -0.339,1.292 -0.779,1.791c-0.551,0.623 -1.329,1.008 -2.145,1.136c-1.052,0.165 -2.187,-0.081 -3.022,-0.757c-0.143,-0.116 -0.276,-0.242 -0.397,-0.38c-0.178,-0.201 -0.331,-0.425 -0.453,-0.665c-0.394,-0.771 -0.476,-1.729 -0.096,-2.521c0.079,-0.167 0.178,-0.325 0.292,-0.47c0.124,-0.157 0.267,-0.299 0.425,-0.422c0.183,-0.142 0.385,-0.259 0.599,-0.345c0.258,-0.105 0.53,-0.163 0.808,-0.18c0.061,-0.003 0.123,-0.004 0.184,-0.003Z" style="fill:#000;fill-rule:nonzero;"/><path d="M44.871,17.014c0.272,0.005 0.542,0.051 0.799,0.142c0.679,0.24 1.231,0.773 1.495,1.443c0.083,0.211 0.137,0.433 0.16,0.659c0.013,0.131 0.01,0.263 0.019,0.395c0.007,0.085 0.014,0.17 0.02,0.255c0.013,0.254 0.006,0.506 -0.038,0.757c-0.058,0.329 -0.173,0.646 -0.335,0.938c-0.113,0.204 -0.249,0.394 -0.396,0.574c-0.137,0.167 -0.282,0.323 -0.452,0.458c-0.41,0.324 -0.919,0.514 -1.441,0.538c-0.295,0.013 -0.591,-0.027 -0.872,-0.116c-0.227,-0.073 -0.443,-0.178 -0.64,-0.311c-0.509,-0.345 -0.88,-0.875 -1.027,-1.472c-0.059,-0.243 -0.083,-0.494 -0.068,-0.743c0.018,-0.318 0.099,-0.628 0.232,-0.917l0.011,-0.024c0,-0.076 0,-0.152 0.005,-0.228c0.004,-0.068 0.011,-0.135 0.02,-0.203c0.037,-0.247 0.108,-0.487 0.215,-0.713c0.277,-0.588 0.784,-1.052 1.393,-1.277c0.245,-0.091 0.503,-0.141 0.764,-0.153c0.045,-0.002 0.09,-0.002 0.136,-0.002Z" style="fill:#000;fill-rule:nonzero;"/></g></svg>