<?xml version="1.0" standalone="no"?><!DOCTYPE svg PUBLIC "-//W3C//DTD SVG 1.1//EN" "http://www.w3.org/Graphics/SVG/1.1/DTD/svg11.dtd"><svg width="100%" height="100%" viewBox="0 0 61 61" version="1.1" xmlns="http://www.w3.org/2000/svg" xmlns:xlink="http://www.w3.org/1999/xlink" xml:space="preserve" style="fill-rule:evenodd;clip-rule:evenodd;stroke-linejoin:round;stroke-miterlimit:1.41421;"><g><path d="M31.031,25.214c0.555,0.015 1.108,0.054 1.661,0.118c0.092,0.012 0.092,0.011 0.183,0.025c0.367,0.06 0.734,0.128 1.098,0.211c1.022,0.231 2.032,0.558 3.018,0.977c0.132,0.057 0.262,0.119 0.393,0.181c0.235,0.112 0.468,0.229 0.7,0.351c0.701,0.368 1.387,0.781 2.057,1.238c0.317,0.217 0.632,0.442 0.942,0.678c0.241,0.185 0.479,0.38 0.714,0.578c0.462,0.388 0.915,0.794 1.345,1.241c0.513,0.533 0.997,1.114 1.459,1.722c0.233,0.307 0.458,0.627 0.681,0.946c0.42,0.601 0.83,1.214 1.246,1.819c0.148,0.214 0.297,0.426 0.447,0.638c0,0 -0.003,-0.004 -0.002,-0.003c0.03,0.043 0.061,0.086 0.092,0.128c0.334,0.464 0.677,0.917 1.036,1.348c0.133,0.159 0.268,0.316 0.405,0.469c0.08,0.088 0.16,0.175 0.238,0.264c0.068,0.079 0.068,0.08 0.135,0.16c0.216,0.269 0.426,0.547 0.628,0.834c0.172,0.231 0.342,0.464 0.514,0.694c0.261,0.344 0.527,0.687 0.824,0.978c0.207,0.204 0.426,0.38 0.673,0.456l-0.001,0c0.043,0.01 0.042,0.01 0.085,0.018c-0.043,0.004 -0.043,0.004 -0.086,0.005c-0.207,-0.006 -0.406,-0.081 -0.598,-0.182c-0.196,-0.103 -0.384,-0.232 -0.567,-0.369c-0.244,-0.183 -0.479,-0.384 -0.712,-0.589c-0.27,-0.238 -0.537,-0.482 -0.804,-0.725c-0.001,0 0.001,0.002 0.001,0.001c-0.071,-0.063 -0.141,-0.126 -0.212,-0.188c-0.096,-0.083 -0.193,-0.165 -0.291,-0.244c-0.141,-0.109 -0.281,-0.208 -0.423,-0.315c-0.124,-0.094 -0.246,-0.19 -0.368,-0.288c-0.358,-0.291 -0.708,-0.595 -1.052,-0.913c-0.663,-0.612 -1.303,-1.265 -1.948,-1.909c0,-0.001 0.003,0.003 0.002,0.002c-0.07,-0.069 -0.14,-0.139 -0.21,-0.208c-0.208,-0.205 -0.417,-0.407 -0.627,-0.607c-0.583,-0.546 -1.174,-1.08 -1.803,-1.531c-0.512,-0.368 -1.047,-0.676 -1.587,-0.963c-0.368,-0.196 -0.739,-0.386 -1.114,-0.56c-0.676,-0.316 -1.364,-0.586 -2.061,-0.806c-0.326,-0.102 -0.654,-0.188 -0.983,-0.274c-0.248,-0.064 -0.496,-0.126 -0.746,-0.18c-0.515,-0.112 -1.035,-0.194 -1.556,-0.247c-0.309,-0.032 -0.619,-0.054 -0.929,-0.064c-0.122,-0.004 -0.243,-0.005 -0.365,-0.008c-0.237,-0.006 -0.474,-0.012 -0.711,-0.009c-0.301,0.004 -0.603,0.02 -0.904,0.042c-0.107,0.008 -0.215,0.012 -0.322,0.02c-0.152,0.011 -0.304,0.024 -0.456,0.041c-0.221,0.023 -0.44,0.057 -0.66,0.086c-0.186,0.025 -0.372,0.048 -0.558,0.078c-0.269,0.044 -0.536,0.1 -0.803,0.154c-0.192,0.039 -0.383,0.078 -0.575,0.123c-0.204,0.048 -0.407,0.101 -0.61,0.158c-0.068,0.019 -0.135,0.04 -0.203,0.059c-0.137,0.037 -0.275,0.073 -0.412,0.114c-0.31,0.09 -0.618,0.191 -0.924,0.302c-0.311,0.112 -0.62,0.234 -0.927,0.366c-0.181,0.078 -0.361,0.162 -0.541,0.244c-0.286,0.129 -0.572,0.256 -0.855,0.397c-0.475,0.236 -0.942,0.495 -1.403,0.772c-0.167,0.102 -0.332,0.208 -0.499,0.311c-0.355,0.22 -0.71,0.442 -1.065,0.666l0.004,-0.003c-0.215,0.137 -0.215,0.137 -0.431,0.275c-0.001,0.001 0.005,-0.003 0.004,-0.002c-0.076,0.048 -0.151,0.097 -0.226,0.146c-0.001,0 0.004,-0.004 0.003,-0.003c-0.077,0.05 -0.153,0.1 -0.23,0.15c-0.313,0.205 -0.624,0.418 -0.939,0.619c-0.241,0.156 -0.483,0.314 -0.723,0.473c-0.467,0.313 -0.931,0.633 -1.389,0.967c-0.394,0.288 -0.783,0.59 -1.159,0.916c-0.126,0.11 -0.252,0.223 -0.373,0.343c-0.119,0.116 -0.237,0.24 -0.359,0.358c-0.097,0.092 -0.195,0.182 -0.294,0.269c-0.109,0.096 -0.219,0.192 -0.331,0.281c-0.449,0.353 -0.914,0.668 -1.37,1.001c-0.135,0.101 -0.27,0.203 -0.403,0.308c-0.338,0.272 -0.664,0.567 -0.963,0.909c-0.241,0.275 -0.46,0.577 -0.664,0.9c0.039,-0.11 0.039,-0.109 0.079,-0.218c0.08,-0.208 0.165,-0.413 0.259,-0.612c0.178,-0.379 0.383,-0.735 0.605,-1.072c0.458,-0.696 0.985,-1.304 1.49,-1.938c0.15,-0.192 0.299,-0.386 0.446,-0.582c0.108,-0.147 0.215,-0.297 0.317,-0.452c0.091,-0.136 0.178,-0.277 0.266,-0.417c0.068,-0.104 0.137,-0.207 0.208,-0.309c0.569,-0.807 1.192,-1.546 1.827,-2.263c0.283,-0.32 0.569,-0.633 0.857,-0.944c0.181,-0.196 0.362,-0.392 0.546,-0.583c0.247,-0.256 0.5,-0.503 0.751,-0.751c0.5,-0.494 1.004,-0.979 1.51,-1.461l0.276,-0.261c0.591,-0.537 1.202,-1.038 1.826,-1.505c0.223,-0.166 0.448,-0.328 0.674,-0.485c0.138,-0.096 0.277,-0.193 0.418,-0.283c0.142,-0.092 0.287,-0.178 0.432,-0.264c0.345,-0.206 0.695,-0.4 1.048,-0.583c0.562,-0.292 1.133,-0.56 1.712,-0.79c0.197,-0.078 0.398,-0.145 0.598,-0.212c0.346,-0.117 0.695,-0.223 1.045,-0.317c0.198,-0.053 0.398,-0.095 0.597,-0.137c0.345,-0.073 0.692,-0.137 1.04,-0.186c0.144,-0.02 0.289,-0.032 0.433,-0.046c0.43,-0.04 0.861,-0.061 1.291,-0.069c0.063,-0.001 0.125,0.001 0.188,0.002Z" style="fill:#000;fill-rule:nonzero;"/><path d="M19.913,14.258c0.076,-0.042 0.156,-0.072 0.234,-0.108c0.08,-0.037 0.16,-0.075 0.24,-0.112l0.159,-0.075c0.182,-0.07 0.363,-0.141 0.543,-0.213c0.272,-0.112 0.272,-0.111 0.558,-0.233c0.109,-0.046 0.217,-0.099 0.329,-0.139l-0.003,0.002c0.509,-0.186 1.017,-0.374 1.528,-0.557c0.071,-0.022 0.142,-0.043 0.213,-0.064l0.164,-0.05c0.061,-0.272 0.127,-0.54 0.183,-0.814c0.145,-0.701 0.263,-1.415 0.358,-2.137c0.036,-0.274 0.074,-0.547 0.102,-0.824c0.022,-0.212 0.043,-0.435 0.036,-0.649l0,0.001c-0.002,-0.034 -0.003,-0.06 -0.008,-0.092c0,-0.007 -0.005,-0.026 -0.002,-0.02l-0.004,-0.018c0.048,0.069 0.085,0.147 0.12,0.225c0.053,0.121 0.101,0.245 0.146,0.37c0.093,0.256 0.177,0.516 0.258,0.776c0.053,0.171 0.098,0.347 0.145,0.52c0.093,0.346 0.182,0.694 0.266,1.042c0.064,0.268 0.126,0.536 0.185,0.804c0.041,0.186 0.072,0.335 0.11,0.522c0.04,0.198 0.078,0.395 0.111,0.594c0.015,0.084 0.025,0.17 0.036,0.254c0.024,0.178 0.045,0.355 0.058,0.533c0.015,0.205 0.021,0.412 -0.002,0.61c-0.029,0.246 -0.102,0.477 -0.222,0.662c-0.058,0.089 -0.113,0.157 -0.188,0.227c-0.032,0.029 -0.068,0.053 -0.101,0.08l-0.165,0.164c-0.092,0.102 -0.184,0.205 -0.275,0.309c-0.207,0.22 -0.413,0.441 -0.619,0.662c-0.175,0.188 -0.32,0.426 -0.526,0.564c-0.088,0.094 -0.183,0.178 -0.276,0.266c-0.298,0.281 -0.6,0.556 -0.904,0.828l-0.067,0.06c-0.195,0.151 -0.391,0.301 -0.587,0.45c-0.079,0.06 -0.165,0.109 -0.247,0.163c-0.076,0.05 -0.153,0.1 -0.23,0.151l-0.075,0.049c-0.135,0.075 -0.271,0.15 -0.407,0.224c-0.046,0.026 -0.091,0.053 -0.138,0.077c-0.117,0.058 -0.465,0.237 -0.353,0.169l-0.218,0.106c-0.263,0.105 -0.525,0.212 -0.787,0.318c-0.002,0.001 0.006,-0.003 0.004,-0.003c-0.082,0.034 -0.324,0.149 -0.247,0.102l-0.17,0.071c-0.193,0.065 -0.385,0.13 -0.578,0.197c-0.217,0.076 -0.434,0.153 -0.65,0.233c-0.184,0.057 -0.367,0.115 -0.549,0.177c-0.151,0.05 -0.301,0.102 -0.451,0.156c-0.073,0.027 -0.146,0.058 -0.22,0.081c-0.146,0.047 -0.29,0.095 -0.435,0.145c-0.135,0.048 -0.422,0.153 -0.422,0.153c0,0 -0.158,-0.007 -0.185,0.038c0,0 -0.081,0.122 -0.117,0.206c-0.063,0.153 -0.106,0.319 -0.146,0.486c-0.035,0.143 -0.067,0.286 -0.093,0.433c-0.106,0.602 -0.149,1.232 -0.154,1.866l0,0.039c-0.124,-0.255 -0.239,-0.515 -0.347,-0.779c-0.086,-0.208 -0.167,-0.419 -0.244,-0.631c-0.077,-0.212 -0.147,-0.428 -0.21,-0.645c-0.043,-0.149 -0.085,-0.3 -0.119,-0.451c-0.065,-0.288 -0.106,-0.585 -0.122,-0.874c-0.027,-0.468 0.024,-0.933 0.197,-1.319c0.068,-0.154 0.156,-0.286 0.254,-0.41c0.102,-0.154 0.205,-0.307 0.309,-0.459c0.081,-0.115 0.162,-0.23 0.244,-0.343c0.031,-0.043 0.062,-0.088 0.095,-0.129c0.294,-0.369 0.605,-0.718 0.916,-1.066l0.06,-0.066c0.321,-0.321 0.646,-0.636 0.974,-0.948l0.068,-0.064c0.272,-0.226 0.545,-0.451 0.82,-0.673l0.245,-0.2c0.218,-0.155 0.433,-0.315 0.658,-0.457l0.387,-0.247c0.106,-0.056 0.211,-0.113 0.317,-0.17c0.001,-0.001 -0.005,0.003 -0.004,0.002c0.079,-0.043 0.158,-0.085 0.237,-0.128Z" style="fill:#000;fill-rule:nonzero;"/><path d="M35.659,12.28c0.062,0.108 0.449,0.358 0.516,0.391c0.169,0.085 0.339,0.167 0.509,0.249c0.23,0.109 0.46,0.216 0.691,0.321c0.197,0.102 0.394,0.201 0.591,0.3c0.203,0.101 0.406,0.2 0.609,0.299c0.107,0.051 0.209,0.114 0.312,0.173c0.306,0.169 0.612,0.337 0.919,0.503c0.126,0.078 0.253,0.155 0.379,0.232l0.187,0.114c0.099,0.066 0.197,0.132 0.296,0.198c0.052,0.035 0.209,0.141 0.158,0.104l0.076,0.05c0.179,0.136 0.359,0.27 0.54,0.404c0.049,0.037 0.095,0.08 0.143,0.12c0.141,0.117 0.283,0.232 0.425,0.348c0.05,0.04 0.097,0.087 0.145,0.13c0.131,0.119 0.262,0.236 0.394,0.352c0.164,0.143 0.329,0.285 0.495,0.425c0.057,0.047 0.114,0.095 0.171,0.142c0.119,0.109 0.239,0.215 0.36,0.321l0.09,0.078c0.011,0.017 0.022,0.034 0.034,0.049c0.099,0.115 0.227,0.185 0.35,0.25c0.069,0.036 0.14,0.067 0.21,0.1c0.108,0.05 0.216,0.101 0.326,0.149c0.325,0.132 0.651,0.261 0.974,0.397c0.114,0.049 0.229,0.095 0.34,0.152c0.13,0.067 0.26,0.138 0.388,0.215c0.094,0.057 0.184,0.121 0.277,0.182c0.053,0.034 0.053,0.032 0.106,0.068l0.053,0.04c0.097,0.083 0.186,0.176 0.263,0.288c0.044,0.066 0.084,0.137 0.119,0.211c0.241,0.511 0.212,1.136 0.12,1.696c-0.015,0.09 -0.032,0.18 -0.05,0.27c-0.024,0.118 -0.051,0.235 -0.08,0.352c-0.035,0.141 -0.073,0.281 -0.113,0.42c-0.058,0.204 -0.129,0.403 -0.2,0.601c-0.088,0.244 -0.181,0.484 -0.28,0.721l-0.015,0.036c-0.009,-0.146 -0.022,-0.291 -0.035,-0.436c-0.013,-0.129 -0.027,-0.258 -0.041,-0.386c-0.023,-0.185 -0.049,-0.369 -0.076,-0.552c-0.03,-0.207 -0.06,-0.412 -0.101,-0.616c-0.054,-0.272 -0.505,-0.692 -0.601,-0.679c-0.148,0.025 -0.296,0.044 -0.444,0.069c-0.284,0.047 -0.568,0.097 -0.852,0.143c-0.118,0.017 -0.236,0.033 -0.354,0.046c-0.416,0.041 -0.837,0.02 -1.247,-0.073c-0.074,-0.019 -0.146,-0.042 -0.219,-0.062c-0.154,-0.044 -0.308,-0.085 -0.461,-0.129c-0.006,-0.002 -0.197,-0.058 -0.239,-0.073c-0.081,-0.027 -0.161,-0.06 -0.241,-0.09c-0.166,-0.064 -0.331,-0.13 -0.495,-0.197c-0.232,-0.096 -0.464,-0.195 -0.694,-0.297c-0.061,-0.027 -0.123,-0.05 -0.183,-0.081c-0.17,-0.087 -0.339,-0.178 -0.508,-0.269c-0.059,-0.031 -0.12,-0.06 -0.177,-0.095c-0.172,-0.108 -0.343,-0.217 -0.514,-0.326l-0.093,-0.06c-0.185,-0.136 -0.369,-0.274 -0.553,-0.413c-0.168,-0.139 -0.335,-0.279 -0.501,-0.419l-0.054,-0.046c-0.183,-0.174 -0.365,-0.349 -0.548,-0.524c-0.106,-0.103 -0.421,-0.409 -0.536,-0.524c-0.103,-0.102 -0.198,-0.218 -0.296,-0.327c-0.084,-0.094 -0.169,-0.188 -0.253,-0.283c-0.081,-0.091 -0.161,-0.182 -0.242,-0.273c-0.086,-0.098 -0.175,-0.192 -0.257,-0.294c-0.297,-0.369 -0.589,-0.742 -0.875,-1.124c-0.044,-0.059 -0.092,-0.12 -0.134,-0.181c-0.114,-0.167 -0.227,-0.333 -0.341,-0.5l-0.061,-0.096c-0.03,-0.047 -0.076,-0.117 -0.1,-0.169c-0.059,-0.127 -0.099,-0.269 -0.132,-0.409c-0.073,-0.315 -0.103,-0.644 -0.124,-0.97c-0.022,-0.342 -0.033,-0.685 -0.046,-1.028c-0.007,-0.181 -0.015,-0.363 -0.022,-0.544c-0.007,-0.184 -0.009,-0.368 -0.017,-0.552c-0.007,-0.117 -0.014,-0.234 -0.023,-0.351c-0.007,-0.078 -0.015,-0.156 -0.024,-0.234c-0.007,-0.049 -0.016,-0.096 -0.023,-0.145c0,-0.003 0.005,0.012 0.004,0.009c-0.01,-0.069 -0.016,-0.066 -0.028,-0.135c0,-0.003 0.006,0.013 0.005,0.009c-0.012,-0.061 -0.017,-0.058 -0.032,-0.118c0,-0.003 0.006,0.009 0.005,0.007c-0.003,-0.011 -0.007,-0.02 -0.01,-0.03c-0.004,-0.012 -0.003,-0.012 -0.008,-0.024l0.004,0.005c-0.004,-0.011 -0.003,-0.011 -0.007,-0.022c-0.009,-0.025 -0.011,-0.023 -0.019,-0.047c-0.001,-0.002 0.005,0.007 0.004,0.004c-0.004,-0.008 -0.009,-0.015 -0.012,-0.024c-0.004,-0.009 -0.003,-0.009 -0.008,-0.018l0.004,0.005c-0.004,-0.009 -0.003,-0.009 -0.007,-0.018c-0.01,-0.019 -0.012,-0.017 -0.022,-0.036c-0.004,-0.007 -0.004,-0.007 -0.009,-0.014l0.006,0.004c-0.005,-0.006 -0.004,-0.007 -0.009,-0.014c-0.004,-0.005 -0.01,-0.009 -0.015,-0.015c-0.004,-0.006 -0.004,-0.006 -0.009,-0.011l0.006,0.002c-0.006,-0.005 -0.004,-0.006 -0.01,-0.011c-0.005,-0.005 -0.011,-0.007 -0.016,-0.012c-0.005,-0.005 -0.005,-0.005 -0.011,-0.008l0.007,0.001c-0.007,-0.004 -0.006,-0.005 -0.012,-0.009c-0.006,-0.003 -0.012,-0.004 -0.018,-0.007c-0.006,-0.004 -0.006,-0.004 -0.012,-0.006l0.005,-0.001c-0.006,-0.001 -0.013,-0.002 -0.019,-0.004c-0.002,-0.001 0.006,-0.001 0.005,-0.001c-0.007,-0.002 -0.013,-0.001 -0.02,-0.003c-0.008,-0.002 -0.007,-0.002 -0.015,-0.003l0.004,-0.001c-0.007,0 -0.014,0 -0.021,0c-0.001,0 0.005,-0.001 0.004,-0.001c-0.007,0 -0.014,0.001 -0.021,0.001c-0.001,0 0.003,-0.001 0.002,-0.001c-0.02,0.002 -0.02,0.002 -0.04,0.006l0.001,-0.001c-0.031,0.009 -0.057,0.018 -0.09,0.033l0.001,-0.001l-0.025,0.013c0.014,-0.027 0.029,-0.053 0.046,-0.078c0.026,-0.038 0.055,-0.073 0.089,-0.1c0.02,-0.016 0.041,-0.03 0.063,-0.041c0.172,-0.083 0.359,0.023 0.499,0.144c0.02,0.017 0.063,0.057 0.076,0.07c0.033,0.032 0.069,0.07 0.1,0.106c0.033,0.037 0.069,0.08 0.101,0.12c0.052,0.065 0.102,0.133 0.152,0.203c0.07,0.099 0.138,0.202 0.204,0.306c0.07,0.11 0.138,0.222 0.205,0.336c0.045,0.077 0.092,0.153 0.136,0.233c0.037,0.068 0.131,0.246 0.158,0.299c0.095,0.181 0.188,0.364 0.281,0.546c0.086,0.157 0.17,0.315 0.257,0.471Z" style="fill:#000;fill-rule:nonzero;"/></g></svg>